<svg width="93" height="20" viewBox="0 0 93 20" fill="none" xmlns="http://www.w3.org/2000/svg">
<path d="M8.606 17.96C7.982 17.96 7.37533 17.8647 6.786 17.674C6.214 17.4833 5.70267 17.18 5.252 16.764C4.80133 16.3307 4.43733 15.7673 4.16 15.074C3.9 14.3633 3.77 13.4967 3.77 12.474C3.77 11.4167 3.91733 10.524 4.212 9.796C4.50667 9.05067 4.87067 8.46133 5.304 8.028C5.75467 7.57733 6.24867 7.25667 6.786 7.066C7.32333 6.858 7.83467 6.754 8.32 6.754C9.11733 6.754 9.81067 6.962 10.4 7.378C10.9893 7.794 11.3793 8.30533 11.57 8.912H13.364C13.1907 8.288 12.9133 7.77667 12.532 7.378C12.1507 6.962 11.7087 6.63267 11.206 6.39C10.7207 6.13 10.192 5.95667 9.62 5.87C9.06533 5.766 8.528 5.714 8.008 5.714C6.916 5.714 5.954 5.896 5.122 6.26C4.29 6.60667 3.588 7.08333 3.016 7.69C2.444 8.29667 2.01067 9.00733 1.716 9.822C1.43867 10.6367 1.3 11.5033 1.3 12.422C1.3 13.3927 1.456 14.3027 1.768 15.152C2.08 15.984 2.522 16.712 3.094 17.336C3.68333 17.9427 4.38533 18.428 5.2 18.792C6.01467 19.1387 6.93333 19.312 7.956 19.312C9.1 19.312 10.0967 19.1213 10.946 18.74C11.8127 18.3587 12.5407 17.9427 13.13 17.492L12.376 16.504C11.7693 17.0067 11.1627 17.3793 10.556 17.622C9.96667 17.8473 9.31667 17.96 8.606 17.96ZM21.0066 5.714C22.2719 5.714 23.2512 5.896 23.9446 6.26C24.6379 6.60667 25.1406 7.066 25.4526 7.638C25.7819 8.21 25.9726 8.86867 26.0246 9.614C26.0766 10.3593 26.1026 11.122 26.1026 11.902V19H23.9966V17.726C23.4939 18.2113 22.8526 18.6013 22.0726 18.896C21.2926 19.1733 20.5126 19.312 19.7326 19.312C18.9872 19.312 18.3286 19.182 17.7566 18.922C17.1846 18.662 16.7079 18.324 16.3266 17.908C15.9452 17.492 15.6592 17.024 15.4686 16.504C15.2779 15.984 15.1826 15.4553 15.1826 14.918C15.1826 14.3633 15.2866 13.8087 15.4946 13.254C15.7026 12.6993 16.0146 12.2053 16.4306 11.772C16.8466 11.3213 17.3579 10.9573 17.9646 10.68C18.5712 10.4027 19.2646 10.264 20.0446 10.264C20.8246 10.264 21.5612 10.42 22.2546 10.732C22.9652 11.0267 23.5459 11.4513 23.9966 12.006V10.888C23.9966 9.46667 23.7799 8.40933 23.3466 7.716C22.9306 7.02267 22.1592 6.676 21.0326 6.676C20.5472 6.676 20.1226 6.73667 19.7586 6.858C19.3946 6.97933 19.0652 7.15267 18.7706 7.378C18.4932 7.586 18.2332 7.85467 17.9906 8.184C17.7479 8.496 17.5052 8.85133 17.2626 9.25L15.9106 7.898C16.1532 7.638 16.4046 7.378 16.6646 7.118C16.9419 6.858 17.2712 6.624 17.6526 6.416C18.0512 6.208 18.5192 6.04333 19.0566 5.922C19.5939 5.78333 20.2439 5.714 21.0066 5.714ZM23.9966 13.852C23.9099 13.644 23.7799 13.4013 23.6066 13.124C23.4506 12.8467 23.2426 12.578 22.9826 12.318C22.7226 12.058 22.4106 11.8413 22.0466 11.668C21.6826 11.4773 21.2492 11.382 20.7466 11.382C20.2439 11.382 19.7846 11.486 19.3686 11.694C18.9526 11.8847 18.5972 12.1447 18.3026 12.474C18.0252 12.786 17.8086 13.1587 17.6526 13.592C17.4966 14.0253 17.4186 14.476 17.4186 14.944C17.4186 15.4987 17.5139 15.984 17.7046 16.4C17.9126 16.7987 18.1726 17.1453 18.4846 17.44C18.7966 17.7173 19.1432 17.9253 19.5246 18.064C19.9059 18.2027 20.2699 18.272 20.6166 18.272C20.9459 18.272 21.2752 18.2113 21.6046 18.09C21.9512 17.9687 22.2719 17.804 22.5666 17.596C22.8786 17.3707 23.1559 17.1107 23.3986 16.816C23.6412 16.5213 23.8406 16.2007 23.9966 15.854V13.852ZM41.1316 19V10.576C41.1316 10.264 41.1056 9.83933 41.0536 9.302C41.0016 8.74733 40.8283 8.21 40.5336 7.69C40.2563 7.15267 39.8056 6.69333 39.1816 6.312C38.5576 5.91333 37.6736 5.714 36.5296 5.714C36.0269 5.69667 35.4636 5.80067 34.8396 6.026C34.2156 6.234 33.6003 6.64133 32.9936 7.248L32.5776 7.664H32.4736V6H30.2636V19H32.4736V10.966C32.4736 10.29 32.5689 9.70933 32.7596 9.224C32.9503 8.73867 33.2103 8.33133 33.5396 8.002C33.8689 7.67267 34.2416 7.43 34.6576 7.274C35.0909 7.118 35.5329 7.04 35.9836 7.04C36.7116 7.04 37.2749 7.18733 37.6736 7.482C38.0723 7.75933 38.3583 8.08867 38.5316 8.47C38.7223 8.85133 38.8349 9.23267 38.8696 9.614C38.9043 9.99533 38.9216 10.2727 38.9216 10.446V19H41.1316ZM56.915 0.799999H54.705V8.132H54.601C54.4277 7.68133 54.1937 7.30867 53.899 7.014C53.6217 6.702 53.301 6.45067 52.937 6.26C52.573 6.06933 52.183 5.93067 51.767 5.844C51.3683 5.75733 50.961 5.714 50.545 5.714C49.6783 5.714 48.881 5.87867 48.153 6.208C47.425 6.52 46.7923 6.97067 46.255 7.56C45.735 8.14933 45.3277 8.86 45.033 9.692C44.7383 10.524 44.591 11.4513 44.591 12.474C44.591 13.514 44.7383 14.4587 45.033 15.308C45.3277 16.14 45.735 16.8593 46.255 17.466C46.7923 18.0553 47.425 18.5147 48.153 18.844C48.881 19.156 49.6783 19.312 50.545 19.312C52.5903 19.312 53.9423 18.506 54.601 16.894H54.705V19H56.915V0.799999ZM54.705 13.8C54.705 14.372 54.6097 14.918 54.419 15.438C54.2283 15.9407 53.9683 16.3827 53.639 16.764C53.327 17.128 52.9457 17.4227 52.495 17.648C52.0617 17.856 51.5937 17.96 51.091 17.96C50.5363 17.96 50.0163 17.8647 49.531 17.674C49.0457 17.466 48.621 17.1453 48.257 16.712C47.893 16.2787 47.5983 15.7153 47.373 15.022C47.165 14.3287 47.061 13.4967 47.061 12.526C47.061 11.538 47.165 10.6973 47.373 10.004C47.5983 9.31067 47.893 8.74733 48.257 8.314C48.6383 7.86333 49.0717 7.54267 49.557 7.352C50.0423 7.144 50.5537 7.04 51.091 7.04C51.5763 7.04 52.0357 7.144 52.469 7.352C52.9023 7.54267 53.2837 7.83733 53.613 8.236C53.9423 8.61733 54.2023 9.08533 54.393 9.64C54.601 10.1947 54.705 10.8273 54.705 11.538V13.8ZM63.7924 0.799999H61.5824V19H63.7924V0.799999ZM80.0205 13.072V12.526C80.0205 11.3647 79.8558 10.3593 79.5265 9.51C79.1972 8.66067 78.7465 7.95867 78.1745 7.404C77.6198 6.84933 76.9698 6.43333 76.2245 6.156C75.4792 5.87867 74.6905 5.74 73.8585 5.74C72.9745 5.74 72.1598 5.896 71.4145 6.208C70.6692 6.50267 70.0192 6.94467 69.4645 7.534C68.9098 8.106 68.4765 8.808 68.1645 9.64C67.8525 10.4547 67.6965 11.382 67.6965 12.422C67.6965 13.2887 67.8265 14.138 68.0865 14.97C68.3638 15.7847 68.7712 16.5213 69.3085 17.18C69.8632 17.8213 70.5565 18.3413 71.3885 18.74C72.2378 19.1213 73.2345 19.312 74.3785 19.312C75.4878 19.312 76.5105 19.1213 77.4465 18.74C78.3825 18.3413 79.1972 17.778 79.8905 17.05L79.0585 16.218C78.6945 16.53 78.3478 16.816 78.0185 17.076C77.7065 17.336 77.3858 17.5527 77.0565 17.726C76.7272 17.8993 76.3805 18.038 76.0165 18.142C75.6698 18.2287 75.2798 18.272 74.8465 18.272C74.3612 18.272 73.8412 18.2027 73.2865 18.064C72.7492 17.908 72.2465 17.6393 71.7785 17.258C71.3105 16.8767 70.9205 16.348 70.6085 15.672C70.2965 14.996 70.1405 14.1293 70.1405 13.072H80.0205ZM70.1405 12.032C70.1405 11.3387 70.2098 10.6713 70.3485 10.03C70.5045 9.37133 70.7298 8.79067 71.0245 8.288C71.3365 7.78533 71.7265 7.38667 72.1945 7.092C72.6625 6.78 73.2172 6.624 73.8585 6.624C75.0892 6.624 76.0425 7.10933 76.7185 8.08C77.4118 9.03333 77.7585 10.3507 77.7585 12.032H70.1405ZM91.7002 8.964C91.7002 8.496 91.5788 8.06267 91.3362 7.664C91.0935 7.26533 90.7555 6.92733 90.3222 6.65C89.9062 6.35533 89.4122 6.13 88.8402 5.974C88.2855 5.80067 87.6875 5.714 87.0462 5.714C86.4395 5.714 85.8675 5.792 85.3302 5.948C84.8102 6.104 84.3508 6.338 83.9522 6.65C83.5708 6.962 83.2675 7.352 83.0422 7.82C82.8168 8.27067 82.7042 8.79933 82.7042 9.406C82.7042 10.238 82.8948 10.8967 83.2762 11.382C83.6575 11.8673 84.1342 12.2573 84.7062 12.552C85.2782 12.8467 85.8935 13.0893 86.5522 13.28C87.2282 13.4533 87.8522 13.6527 88.4242 13.878C88.9962 14.086 89.4728 14.3547 89.8542 14.684C90.2355 15.0133 90.4262 15.464 90.4262 16.036C90.4262 16.2787 90.3828 16.53 90.2962 16.79C90.2268 17.05 90.0882 17.2927 89.8802 17.518C89.6722 17.726 89.3862 17.908 89.0222 18.064C88.6582 18.2027 88.1988 18.272 87.6442 18.272C86.9508 18.272 86.3615 18.168 85.8762 17.96C85.4082 17.7347 85.0182 17.4747 84.7062 17.18C84.4115 16.868 84.1948 16.556 84.0562 16.244C83.9348 15.932 83.8742 15.672 83.8742 15.464H82.1842C82.1842 15.9493 82.2968 16.426 82.5222 16.894C82.7475 17.3447 83.0855 17.752 83.5362 18.116C84.0042 18.48 84.5675 18.7747 85.2262 19C85.9022 19.208 86.6822 19.312 87.5662 19.312C89.1608 19.312 90.3568 18.9653 91.1542 18.272C91.9688 17.5613 92.3762 16.634 92.3762 15.49C92.3762 14.658 92.1768 13.9907 91.7782 13.488C91.3968 12.9853 90.9115 12.5867 90.3222 12.292C89.7328 11.98 89.0915 11.7287 88.3982 11.538C87.7222 11.3473 87.0895 11.148 86.5002 10.94C85.9108 10.732 85.4168 10.4807 85.0182 10.186C84.6368 9.89133 84.4462 9.47533 84.4462 8.938C84.4462 8.71267 84.4895 8.47867 84.5762 8.236C84.6628 7.976 84.8102 7.742 85.0182 7.534C85.2262 7.30867 85.5035 7.12667 85.8502 6.988C86.1968 6.832 86.6302 6.754 87.1502 6.754C87.6702 6.754 88.1208 6.832 88.5022 6.988C88.8835 7.12667 89.2042 7.30867 89.4642 7.534C89.7242 7.742 89.9148 7.976 90.0362 8.236C90.1575 8.496 90.2182 8.73867 90.2182 8.964H91.7002Z" fill="#333333"/>
<path d="M6.786 17.674L6.6595 18.0535L6.66287 18.0546L6.786 17.674ZM5.252 16.764L4.9747 17.0524L4.98069 17.0579L5.252 16.764ZM4.16 15.074L3.78418 15.2115L3.78861 15.2226L4.16 15.074ZM4.212 9.796L4.58279 9.94608L4.58398 9.94306L4.212 9.796ZM5.304 8.028L5.58684 8.31084L5.304 8.028ZM6.786 7.066L6.91982 7.44312L6.9304 7.43903L6.786 7.066ZM10.4 7.378L10.6307 7.05121L10.6307 7.05121L10.4 7.378ZM11.57 8.912L11.1884 9.03193L11.2764 9.312H11.57V8.912ZM13.364 8.912V9.312H13.8903L13.7494 8.80494L13.364 8.912ZM12.532 7.378L12.2371 7.64835L12.2429 7.65449L12.532 7.378ZM11.206 6.39L11.0171 6.74259L11.0245 6.74656L11.0321 6.75022L11.206 6.39ZM9.62 5.87L9.54624 6.26339L9.56008 6.26549L9.62 5.87ZM5.122 6.26L5.27587 6.62929L5.28233 6.62646L5.122 6.26ZM3.016 7.69L2.72496 7.41559L2.72496 7.41559L3.016 7.69ZM1.716 9.822L1.33978 9.68592L1.33734 9.69309L1.716 9.822ZM1.768 15.152L1.39252 15.2899L1.39347 15.2924L1.768 15.152ZM3.094 17.336L2.79901 17.6064L2.80709 17.6147L3.094 17.336ZM5.2 18.792L5.0368 19.1573L5.04338 19.1601L5.2 18.792ZM10.946 18.74L10.7849 18.3739L10.7822 18.3751L10.946 18.74ZM13.13 17.492L13.373 17.8097L13.6904 17.567L13.448 17.2493L13.13 17.492ZM12.376 16.504L12.694 16.2613L12.4414 15.9304L12.1208 16.196L12.376 16.504ZM10.556 17.622L10.6989 17.9957L10.7046 17.9934L10.556 17.622ZM8.606 17.56C8.02349 17.56 7.45839 17.4711 6.90913 17.2934L6.66287 18.0546C7.29228 18.2582 7.94051 18.36 8.606 18.36V17.56ZM6.91249 17.2945C6.39523 17.1221 5.93305 16.8483 5.52331 16.4701L4.98069 17.0579C5.47228 17.5117 6.03277 17.8446 6.65951 18.0535L6.91249 17.2945ZM5.52924 16.4757C5.1267 16.0886 4.79166 15.5761 4.53139 14.9254L3.78861 15.2226C4.083 15.9585 4.47596 16.5727 4.97476 17.0523L5.52924 16.4757ZM4.53565 14.9366C4.29632 14.2824 4.17 13.4652 4.17 12.474H3.37C3.37 13.5281 3.50368 14.4443 3.78435 15.2114L4.53565 14.9366ZM4.17 12.474C4.17 11.4513 4.31284 10.613 4.58278 9.94608L3.84122 9.64592C3.52183 10.435 3.37 11.382 3.37 12.474H4.17ZM4.58398 9.94306C4.86444 9.23367 5.20213 8.69555 5.58684 8.31084L5.02116 7.74516C4.5392 8.22712 4.14889 8.86766 3.84002 9.64894L4.58398 9.94306ZM5.58684 8.31084C6.00043 7.89725 6.4448 7.61151 6.91976 7.44297L6.65224 6.68903C6.05253 6.90183 5.5089 7.25741 5.02116 7.74516L5.58684 8.31084ZM6.9304 7.43903C7.43011 7.24559 7.89235 7.154 8.32 7.154V6.354C7.77698 6.354 7.21656 6.47041 6.6416 6.69297L6.9304 7.43903ZM8.32 7.154C9.04383 7.154 9.65456 7.34142 10.1693 7.70479L10.6307 7.05121C9.96678 6.58258 9.19084 6.354 8.32 6.354V7.154ZM10.1693 7.70479C10.6971 8.07736 11.0275 8.51995 11.1884 9.03193L11.9516 8.79207C11.7312 8.09072 11.2815 7.51064 10.6307 7.05121L10.1693 7.70479ZM11.57 9.312H13.364V8.512H11.57V9.312ZM13.7494 8.80494C13.5615 8.12846 13.2553 7.55551 12.8211 7.10151L12.2429 7.65449C12.5713 7.99782 12.8198 8.44754 12.9786 9.01906L13.7494 8.80494ZM12.8269 7.10771C12.4117 6.65476 11.9287 6.29473 11.3799 6.02978L11.0321 6.75022C11.4886 6.9706 11.8897 7.26924 12.2371 7.64829L12.8269 7.10771ZM11.3949 6.03741C10.8673 5.75478 10.2947 5.56767 9.67992 5.47451L9.56008 6.26549C10.0893 6.34567 10.574 6.50522 11.0171 6.74259L11.3949 6.03741ZM9.69372 5.47685C9.11678 5.36868 8.55473 5.314 8.008 5.314V6.114C8.50128 6.114 9.01388 6.16332 9.54628 6.26315L9.69372 5.47685ZM8.008 5.314C6.87177 5.314 5.85339 5.50341 4.96167 5.89354L5.28233 6.62646C6.05462 6.28859 6.96023 6.114 8.008 6.114V5.314ZM4.96815 5.89077C4.08853 6.25728 3.33857 6.7648 2.72496 7.41559L3.30704 7.9644C3.83743 7.40186 4.49147 6.95605 5.27585 6.62923L4.96815 5.89077ZM2.72496 7.41559C2.11396 8.06363 1.65239 8.82188 1.33985 9.68595L2.09215 9.95805C2.36895 9.19279 2.77404 8.5297 3.30704 7.9644L2.72496 7.41559ZM1.33734 9.69309C1.04495 10.552 0.9 11.4625 0.9 12.422H1.7C1.7 11.5442 1.83238 10.7213 2.09466 9.95091L1.33734 9.69309ZM0.9 12.422C0.9 13.4363 1.06316 14.3933 1.39253 15.2899L2.14347 15.0141C1.84884 14.212 1.7 13.349 1.7 12.422H0.9ZM1.39347 15.2924C1.72255 16.17 2.1908 16.9427 2.79914 17.6063L3.38886 17.0657C2.8532 16.4813 2.43745 15.798 2.14253 15.0116L1.39347 15.2924ZM2.80709 17.6147C3.43372 18.2598 4.17838 18.7736 5.03682 19.1572L5.36318 18.4268C4.59229 18.0824 3.93294 17.6256 3.38091 17.0573L2.80709 17.6147ZM5.04338 19.1601C5.91466 19.5308 6.88778 19.712 7.956 19.712V18.912C6.97888 18.912 6.11468 18.7465 5.35662 18.4239L5.04338 19.1601ZM7.956 19.712C9.14387 19.712 10.1986 19.514 11.1098 19.1049L10.7822 18.3751C9.99473 18.7286 9.05613 18.912 7.956 18.912V19.712ZM11.1071 19.1061C11.9953 18.7153 12.7525 18.2842 13.373 17.8097L12.887 17.1743C12.3288 17.6011 11.63 18.002 10.7849 18.3739L11.1071 19.1061ZM13.448 17.2493L12.694 16.2613L12.058 16.7467L12.812 17.7347L13.448 17.2493ZM12.1208 16.196C11.5398 16.6774 10.9685 17.0262 10.4074 17.2506L10.7046 17.9934C11.3569 17.7325 11.9989 17.3359 12.6312 16.812L12.1208 16.196ZM10.4131 17.2484C9.87481 17.4542 9.27397 17.56 8.606 17.56V18.36C9.35937 18.36 10.0585 18.2405 10.6989 17.9956L10.4131 17.2484ZM23.9446 6.26L23.7586 6.61423L23.7657 6.61777L23.9446 6.26ZM25.4526 7.638L25.1013 7.82959L25.1059 7.83759L25.4526 7.638ZM26.0246 9.614L26.4236 9.58616L26.4236 9.58616L26.0246 9.614ZM26.1026 19V19.4H26.5026V19H26.1026ZM23.9966 19H23.5966V19.4H23.9966V19ZM23.9966 17.726H24.3966V16.7838L23.7187 17.4382L23.9966 17.726ZM22.0726 18.896L22.2066 19.273L22.2139 19.2702L22.0726 18.896ZM17.7566 18.922L17.9221 18.5579L17.9221 18.5579L17.7566 18.922ZM16.3266 17.908L16.6214 17.6377L16.6214 17.6377L16.3266 17.908ZM15.4946 13.254L15.12 13.1136L15.12 13.1136L15.4946 13.254ZM16.4306 11.772L16.7192 12.0491L16.7245 12.0433L16.4306 11.772ZM17.9646 10.68L17.7983 10.3162L17.7983 10.3162L17.9646 10.68ZM22.2546 10.732L22.0904 11.0969L22.1014 11.1015L22.2546 10.732ZM23.9966 12.006L23.6861 12.2582L24.3966 13.1326V12.006H23.9966ZM23.3466 7.716L23.0035 7.92183L23.0074 7.928L23.3466 7.716ZM19.7586 6.858L19.8851 7.23747L19.8851 7.23747L19.7586 6.858ZM18.7706 7.378L19.0106 7.69801L19.0136 7.69574L18.7706 7.378ZM17.9906 8.184L18.3064 8.42966L18.3126 8.42128L17.9906 8.184ZM17.2626 9.25L16.9797 9.53284L17.3396 9.89273L17.6043 9.45798L17.2626 9.25ZM15.9106 7.898L15.6182 7.62507L15.3545 7.90758L15.6277 8.18084L15.9106 7.898ZM16.6646 7.118L16.3909 6.82603L16.3817 6.83516L16.6646 7.118ZM17.6526 6.416L17.4675 6.0613L17.461 6.06484L17.6526 6.416ZM19.0566 5.922L19.1447 6.31236L19.1565 6.30931L19.0566 5.922ZM23.9966 13.852H24.3966V13.772L24.3658 13.6982L23.9966 13.852ZM23.6066 13.124L23.2579 13.3201L23.2625 13.3282L23.2674 13.336L23.6066 13.124ZM22.9826 12.318L22.6997 12.6008L22.6997 12.6008L22.9826 12.318ZM22.0466 11.668L21.861 12.0223L21.8677 12.0259L21.8746 12.0291L22.0466 11.668ZM19.3686 11.694L19.5353 12.0578L19.5475 12.0518L19.3686 11.694ZM18.3026 12.474L18.0045 12.2073L18.0036 12.2083L18.3026 12.474ZM17.6526 13.592L18.0289 13.7275L18.0289 13.7275L17.6526 13.592ZM17.7046 16.4L17.341 16.5667L17.3452 16.576L17.3499 16.585L17.7046 16.4ZM18.4846 17.44L18.2098 17.7309L18.2188 17.739L18.4846 17.44ZM19.5246 18.064L19.6613 17.6881L19.6613 17.6881L19.5246 18.064ZM21.6046 18.09L21.4724 17.7124L21.4663 17.7147L21.6046 18.09ZM22.5666 17.596L22.7973 17.9228L22.8008 17.9203L22.5666 17.596ZM23.3986 16.816L23.0898 16.5617L23.0898 16.5617L23.3986 16.816ZM23.9966 15.854L24.3613 16.0181L24.3966 15.9399V15.854H23.9966ZM21.0066 6.114C22.2427 6.114 23.1475 6.29332 23.7586 6.61416L24.1305 5.90584C23.355 5.49867 22.3011 5.314 21.0066 5.314V6.114ZM23.7657 6.61777C24.4001 6.935 24.8355 7.34199 25.1014 7.82954L25.8037 7.44646C25.4457 6.79001 24.8757 6.27834 24.1235 5.90223L23.7657 6.61777ZM25.1059 7.83759C25.4012 8.35049 25.5772 8.94896 25.6255 9.64184L26.4236 9.58616C26.3679 8.78837 26.1626 8.06951 25.7992 7.43841L25.1059 7.83759ZM25.6255 9.64184C25.6769 10.3775 25.7026 11.1309 25.7026 11.902H26.5026C26.5026 11.1131 26.4763 10.3412 26.4236 9.58616L25.6255 9.64184ZM25.7026 11.902V19H26.5026V11.902H25.7026ZM26.1026 18.6H23.9966V19.4H26.1026V18.6ZM24.3966 19V17.726H23.5966V19H24.3966ZM23.7187 17.4382C23.262 17.8792 22.67 18.2427 21.9312 18.5218L22.2139 19.2702C23.0352 18.9599 23.7258 18.5435 24.2744 18.0138L23.7187 17.4382ZM21.9386 18.5191C21.1989 18.7821 20.4642 18.912 19.7326 18.912V19.712C20.561 19.712 21.3862 19.5646 22.2066 19.2729L21.9386 18.5191ZM19.7326 18.912C19.0338 18.912 18.4333 18.7902 17.9221 18.5579L17.5911 19.2861C18.2238 19.5738 18.9406 19.712 19.7326 19.712V18.912ZM17.9221 18.5579C17.3935 18.3176 16.9625 18.0098 16.6214 17.6377L16.0317 18.1783C16.4533 18.6382 16.9756 19.0064 17.5911 19.2861L17.9221 18.5579ZM16.6214 17.6377C16.2747 17.2595 16.0165 16.8363 15.8441 16.3663L15.093 16.6417C15.302 17.2117 15.6158 17.7245 16.0317 18.1783L16.6214 17.6377ZM15.8441 16.3663C15.6691 15.889 15.5826 15.4069 15.5826 14.918H14.7826C14.7826 15.5038 14.8867 16.079 15.093 16.6417L15.8441 16.3663ZM15.5826 14.918C15.5826 14.4145 15.6768 13.9073 15.8691 13.3944L15.12 13.1136C14.8964 13.7101 14.7826 14.3122 14.7826 14.918H15.5826ZM15.8691 13.3944C16.0578 12.8914 16.3402 12.4437 16.7191 12.049L16.142 11.495C15.6889 11.967 15.3474 12.5073 15.12 13.1136L15.8691 13.3944ZM16.7245 12.0433C17.1015 11.6349 17.5682 11.301 18.1309 11.0438L17.7983 10.3162C17.1476 10.6137 16.5917 11.0077 16.1367 11.5007L16.7245 12.0433ZM18.1309 11.0438C18.6772 10.794 19.3123 10.664 20.0446 10.664V9.864C19.2168 9.864 18.4652 10.0113 17.7983 10.3162L18.1309 11.0438ZM20.0446 10.664C20.7695 10.664 21.4501 10.8086 22.0904 11.0968L22.4187 10.3672C21.6724 10.0314 20.8797 9.864 20.0446 9.864V10.664ZM22.1014 11.1015C22.7555 11.3727 23.2805 11.759 23.6861 12.2582L24.307 11.7538C23.8113 11.1437 23.175 10.6806 22.4078 10.3625L22.1014 11.1015ZM24.3966 12.006V10.888H23.5966V12.006H24.3966ZM24.3966 10.888C24.3966 9.44024 24.1785 8.2923 23.6858 7.504L23.0074 7.928C23.3814 8.52637 23.5966 9.4931 23.5966 10.888H24.3966ZM23.6896 7.5102C23.1745 6.65168 22.2383 6.276 21.0326 6.276V7.076C22.0802 7.076 22.6867 7.39365 23.0036 7.9218L23.6896 7.5102ZM21.0326 6.276C20.5151 6.276 20.046 6.34054 19.6321 6.47853L19.8851 7.23747C20.1991 7.13279 20.5794 7.076 21.0326 7.076V6.276ZM19.6321 6.47853C19.2276 6.61337 18.8586 6.80713 18.5276 7.06026L19.0136 7.69574C19.2719 7.49821 19.5616 7.3453 19.8851 7.23747L19.6321 6.47853ZM18.5306 7.058C18.217 7.29319 17.9303 7.59145 17.6686 7.94672L18.3126 8.42128C18.5362 8.11788 18.7695 7.87881 19.0106 7.698L18.5306 7.058ZM17.6748 7.93842C17.4213 8.26437 17.1701 8.63259 16.9209 9.04202L17.6043 9.45798C17.8404 9.07007 18.0745 8.72763 18.3063 8.42958L17.6748 7.93842ZM17.5454 8.96716L16.1934 7.61516L15.6277 8.18084L16.9797 9.53284L17.5454 8.96716ZM16.203 8.17093C16.4424 7.9144 16.6906 7.6577 16.9474 7.40084L16.3817 6.83516C16.1186 7.0983 15.8641 7.3616 15.6182 7.62507L16.203 8.17093ZM16.9382 7.40981C17.1875 7.17601 17.4884 6.96119 17.8441 6.76716L17.461 6.06484C17.0541 6.28681 16.6963 6.53999 16.391 6.82618L16.9382 7.40981ZM17.8376 6.77063C18.1997 6.58173 18.6338 6.42754 19.1447 6.31218L18.9685 5.53182C18.4047 5.65913 17.9028 5.83427 17.4676 6.06137L17.8376 6.77063ZM19.1565 6.30931C19.6516 6.18155 20.266 6.114 21.0066 6.114V5.314C20.2218 5.314 19.5362 5.38512 18.9566 5.53469L19.1565 6.30931ZM24.3658 13.6982C24.2679 13.4632 24.126 13.2004 23.9458 12.912L23.2674 13.336C23.4338 13.6023 23.5519 13.8248 23.6273 14.0058L24.3658 13.6982ZM23.9552 12.9279C23.7788 12.6143 23.5473 12.317 23.2654 12.0352L22.6997 12.6008C22.9379 12.839 23.1223 13.079 23.2579 13.3201L23.9552 12.9279ZM23.2654 12.0352C22.9702 11.74 22.6197 11.4979 22.2186 11.3069L21.8746 12.0291C22.2014 12.1848 22.4749 12.376 22.6997 12.6008L23.2654 12.0352ZM22.2322 11.3137C21.7995 11.087 21.2996 10.982 20.7466 10.982V11.782C21.1988 11.782 21.5657 11.8676 21.861 12.0223L22.2322 11.3137ZM20.7466 10.982C20.1869 10.982 19.6656 11.0983 19.1897 11.3362L19.5475 12.0518C19.9035 11.8737 20.3009 11.782 20.7466 11.782V10.982ZM19.2019 11.3304C18.7377 11.5431 18.3371 11.8355 18.0045 12.2073L18.6007 12.7407C18.8573 12.4538 19.1674 12.2262 19.5352 12.0576L19.2019 11.3304ZM18.0036 12.2083C17.6891 12.5621 17.4477 12.9802 17.2762 13.4565L18.0289 13.7275C18.1695 13.3371 18.3614 13.0099 18.6015 12.7397L18.0036 12.2083ZM17.2762 13.4565C17.1043 13.934 17.0186 14.4306 17.0186 14.944H17.8186C17.8186 14.5214 17.8888 14.1167 18.0289 13.7275L17.2762 13.4565ZM17.0186 14.944C17.0186 15.5442 17.1218 16.0885 17.341 16.5667L18.0682 16.2333C17.906 15.8795 17.8186 15.4531 17.8186 14.944H17.0186ZM17.3499 16.585C17.5775 17.0213 17.864 17.4041 18.2099 17.7308L18.7592 17.1492C18.4811 16.8865 18.2476 16.5761 18.0592 16.215L17.3499 16.585ZM18.2188 17.739C18.5675 18.0489 18.9577 18.2835 19.3879 18.4399L19.6613 17.6881C19.3288 17.5672 19.0257 17.3858 18.7503 17.141L18.2188 17.739ZM19.3879 18.4399C19.8057 18.5919 20.2161 18.672 20.6166 18.672V17.872C20.3237 17.872 20.0061 17.8135 19.6613 17.6881L19.3879 18.4399ZM20.6166 18.672C20.9961 18.672 21.3722 18.6019 21.7429 18.4653L21.4663 17.7147C21.1783 17.8208 20.8957 17.872 20.6166 17.872V18.672ZM21.7367 18.4675C22.1178 18.3342 22.4717 18.1526 22.7973 17.9228L22.3359 17.2692C22.0721 17.4554 21.7847 17.6032 21.4724 17.7125L21.7367 18.4675ZM22.8008 17.9203C23.1403 17.6751 23.4427 17.3916 23.7074 17.0703L23.0898 16.5617C22.8691 16.8297 22.6169 17.0663 22.3324 17.2717L22.8008 17.9203ZM23.7074 17.0703C23.9725 16.7483 24.1907 16.3973 24.3613 16.0181L23.6318 15.6899C23.4905 16.004 23.31 16.2944 23.0898 16.5617L23.7074 17.0703ZM24.3966 15.854V13.852H23.5966V15.854H24.3966ZM41.1316 19V19.4H41.5316V19H41.1316ZM41.0536 9.302L40.6553 9.33934L40.6555 9.34053L41.0536 9.302ZM40.5336 7.69L40.1781 7.87346L40.1817 7.8804L40.1856 7.8872L40.5336 7.69ZM39.1816 6.312L38.9662 6.64914L38.973 6.65331L39.1816 6.312ZM36.5296 5.714L36.5158 6.114H36.5296V5.714ZM34.8396 6.026L34.9661 6.40559L34.9755 6.40222L34.8396 6.026ZM32.9936 7.248L32.7108 6.96516L32.7108 6.96516L32.9936 7.248ZM32.5776 7.664V8.064H32.7433L32.8604 7.94684L32.5776 7.664ZM32.4736 7.664H32.0736V8.064H32.4736V7.664ZM32.4736 6H32.8736V5.6H32.4736V6ZM30.2636 6V5.6H29.8636V6H30.2636ZM30.2636 19H29.8636V19.4H30.2636V19ZM32.4736 19V19.4H32.8736V19H32.4736ZM32.7596 9.224L33.1319 9.37026L33.1319 9.37026L32.7596 9.224ZM33.5396 8.002L33.8224 8.28484L33.8224 8.28484L33.5396 8.002ZM34.6576 7.274L34.5221 6.89761L34.5171 6.89947L34.6576 7.274ZM37.6736 7.482L37.4357 7.8038L37.4452 7.81036L37.6736 7.482ZM38.5316 8.47L38.1674 8.63552L38.1705 8.64226L38.1738 8.64888L38.5316 8.47ZM38.8696 9.614L39.268 9.57778L39.268 9.57778L38.8696 9.614ZM38.9216 19H38.5216V19.4H38.9216V19ZM41.5316 19V10.576H40.7316V19H41.5316ZM41.5316 10.576C41.5316 10.2452 41.5042 9.80583 41.4517 9.26347L40.6555 9.34053C40.707 9.87284 40.7316 10.2828 40.7316 10.576H41.5316ZM41.4518 9.26466C41.3942 8.64974 41.2021 8.0583 40.8816 7.49279L40.1856 7.8872C40.4545 8.3617 40.609 8.84493 40.6553 9.33934L41.4518 9.26466ZM40.889 7.50654C40.5717 6.89171 40.0635 6.38218 39.3902 5.97069L38.973 6.65331C39.5477 7.00448 39.9408 7.41362 40.1781 7.87346L40.889 7.50654ZM39.3969 5.97492C38.6825 5.51848 37.7115 5.314 36.5296 5.314V6.114C37.6357 6.114 38.4327 6.30818 38.9662 6.64908L39.3969 5.97492ZM36.5434 5.31424C35.9764 5.29469 35.3612 5.41237 34.7037 5.64978L34.9755 6.40222C35.566 6.18897 36.0775 6.09865 36.5158 6.11376L36.5434 5.31424ZM34.7131 5.64653C34.0151 5.87921 33.3485 6.32745 32.7108 6.96516L33.2764 7.53084C33.8521 6.95521 34.4161 6.58879 34.9661 6.40547L34.7131 5.64653ZM32.7108 6.96516L32.2948 7.38116L32.8604 7.94684L33.2764 7.53084L32.7108 6.96516ZM32.5776 7.264H32.4736V8.064H32.5776V7.264ZM32.8736 7.664V6H32.0736V7.664H32.8736ZM32.4736 5.6H30.2636V6.4H32.4736V5.6ZM29.8636 6V19H30.6636V6H29.8636ZM30.2636 19.4H32.4736V18.6H30.2636V19.4ZM32.8736 19V10.966H32.0736V19H32.8736ZM32.8736 10.966C32.8736 10.3259 32.9641 9.79745 33.1319 9.37026L32.3873 9.07774C32.1738 9.62121 32.0736 10.2541 32.0736 10.966H32.8736ZM33.1319 9.37026C33.3049 8.92999 33.5364 8.57088 33.8224 8.28484L33.2568 7.71916C32.8841 8.09179 32.5957 8.54734 32.3873 9.07774L33.1319 9.37026ZM33.8224 8.28484C34.1134 7.99389 34.4381 7.78351 34.798 7.64853L34.5171 6.89947C34.0451 7.07648 33.6245 7.35144 33.2568 7.71916L33.8224 8.28484ZM34.7931 7.65035C35.1839 7.50965 35.5801 7.44 35.9836 7.44V6.64C35.4857 6.64 34.9979 6.72635 34.5221 6.89764L34.7931 7.65035ZM35.9836 7.44C36.6644 7.44 37.1315 7.57873 37.4358 7.80367L37.9114 7.16033C37.4183 6.79593 36.7588 6.64 35.9836 6.64V7.44ZM37.4452 7.81036C37.7943 8.05325 38.0284 8.32952 38.1674 8.63552L38.8957 8.30448C38.6882 7.84781 38.3502 7.46542 37.902 7.15364L37.4452 7.81036ZM38.1738 8.64888C38.3447 8.99066 38.4416 9.32388 38.4712 9.65021L39.268 9.57778C39.2283 9.14145 39.0998 8.71201 38.8894 8.29111L38.1738 8.64888ZM38.4712 9.65021C38.5058 10.0303 38.5216 10.2922 38.5216 10.446H39.3216C39.3216 10.2532 39.3027 9.96036 39.268 9.57778L38.4712 9.65021ZM38.5216 10.446V19H39.3216V10.446H38.5216ZM38.9216 19.4H41.1316V18.6H38.9216V19.4ZM56.915 0.799999H57.315V0.399999H56.915V0.799999ZM54.705 0.799999V0.399999H54.305V0.799999H54.705ZM54.705 8.132V8.532H55.105V8.132H54.705ZM54.601 8.132L54.2277 8.27559L54.3263 8.532H54.601V8.132ZM53.899 7.014L53.6001 7.27974L53.6079 7.28853L53.6162 7.29684L53.899 7.014ZM52.937 6.26L52.7514 6.61433L52.7514 6.61433L52.937 6.26ZM51.767 5.844L51.682 6.23488L51.6854 6.23559L51.767 5.844ZM48.153 6.208L48.3106 6.57573L48.3179 6.57244L48.153 6.208ZM46.255 7.56L45.9594 7.29046L45.9551 7.29535L46.255 7.56ZM45.033 9.692L44.656 9.55846L44.656 9.55846L45.033 9.692ZM45.033 15.308L44.6551 15.4391L44.656 15.4415L45.033 15.308ZM46.255 17.466L45.9512 17.7264L45.9594 17.7355L46.255 17.466ZM48.153 18.844L47.9881 19.2085L47.9954 19.2117L48.153 18.844ZM54.601 16.894V16.494H54.3324L54.2307 16.7427L54.601 16.894ZM54.705 16.894H55.105V16.494H54.705V16.894ZM54.705 19H54.305V19.4H54.705V19ZM56.915 19V19.4H57.315V19H56.915ZM54.419 15.438L54.793 15.5799L54.7946 15.5757L54.419 15.438ZM53.639 16.764L53.3363 16.5026L53.3353 16.5037L53.639 16.764ZM52.495 17.648L52.6681 18.0087L52.6739 18.0058L52.495 17.648ZM49.531 17.674L49.3734 18.0418L49.3848 18.0463L49.531 17.674ZM48.257 16.712L48.5633 16.4547L48.5633 16.4547L48.257 16.712ZM47.373 15.022L46.9898 15.137L46.9926 15.1456L47.373 15.022ZM47.373 10.004L46.9925 9.88033L46.9899 9.88906L47.373 10.004ZM48.257 8.314L47.9517 8.05562L47.9507 8.05672L48.257 8.314ZM49.557 7.352L49.7033 7.72447L49.7146 7.71966L49.557 7.352ZM52.469 7.352L52.2958 7.71281L52.3079 7.71813L52.469 7.352ZM53.613 8.236L53.3046 8.49081L53.3103 8.49745L53.613 8.236ZM54.393 9.64L54.0146 9.77008L54.0185 9.78045L54.393 9.64ZM56.915 0.399999H54.705V1.2H56.915V0.399999ZM54.305 0.799999V8.132H55.105V0.799999H54.305ZM54.705 7.732H54.601V8.532H54.705V7.732ZM54.9744 7.98841C54.7841 7.49373 54.5219 7.07119 54.1819 6.73116L53.6162 7.29684C53.8655 7.54614 54.0713 7.86893 54.2277 8.27559L54.9744 7.98841ZM54.198 6.74825C53.889 6.4007 53.5301 6.11913 53.1226 5.90567L52.7514 6.61433C53.0719 6.7822 53.3543 7.0033 53.6001 7.27974L54.198 6.74825ZM53.1226 5.90567C52.7247 5.69725 52.2996 5.54636 51.8486 5.45241L51.6854 6.23559C52.0664 6.31497 52.4213 6.44142 52.7514 6.61433L53.1226 5.90567ZM51.852 5.45313C51.4249 5.36027 50.989 5.314 50.545 5.314V6.114C50.933 6.114 51.3118 6.15439 51.682 6.23487L51.852 5.45313ZM50.545 5.314C49.6264 5.314 48.7722 5.48886 47.9881 5.84356L48.3179 6.57244C48.9898 6.26847 49.7303 6.114 50.545 6.114V5.314ZM47.9954 5.84034C47.2146 6.17499 46.535 6.65927 45.9594 7.2905L46.5506 7.8295C47.0497 7.28206 47.6354 6.865 48.3106 6.57566L47.9954 5.84034ZM45.9551 7.29535C45.3973 7.92749 44.9656 8.68414 44.656 9.55846L45.4101 9.82554C45.6897 9.03586 46.0727 8.37117 46.555 7.82465L45.9551 7.29535ZM44.656 9.55846C44.3439 10.4396 44.191 11.4129 44.191 12.474H44.991C44.991 11.4897 45.1328 10.6084 45.4101 9.82554L44.656 9.55846ZM44.191 12.474C44.191 13.5518 44.3437 14.5416 44.6551 15.4391L45.4109 15.1769C45.133 14.3758 44.991 13.4762 44.991 12.474H44.191ZM44.656 15.4415C44.9654 16.3151 45.3961 17.0785 45.9513 17.7263L46.5587 17.2057C46.074 16.6401 45.69 15.9649 45.4101 15.1745L44.656 15.4415ZM45.9594 17.7355C46.5335 18.3651 47.2107 18.8567 47.9881 19.2084L48.3179 18.4796C47.6394 18.1726 47.0512 17.7455 46.5506 17.1965L45.9594 17.7355ZM47.9954 19.2117C48.7778 19.5469 49.6293 19.712 50.545 19.712V18.912C49.7274 18.912 48.9843 18.7651 48.3106 18.4763L47.9954 19.2117ZM50.545 19.712C51.6187 19.712 52.544 19.5005 53.2978 19.0511C54.0563 18.5989 54.6128 17.9226 54.9713 17.0453L54.2307 16.7427C53.9306 17.4774 53.4817 18.0101 52.8882 18.3639C52.2901 18.7205 51.5167 18.912 50.545 18.912V19.712ZM54.601 17.294H54.705V16.494H54.601V17.294ZM54.305 16.894V19H55.105V16.894H54.305ZM54.705 19.4H56.915V18.6H54.705V19.4ZM57.315 19V0.799999H56.515V19H57.315ZM54.305 13.8C54.305 14.3266 54.2174 14.8259 54.0435 15.3003L54.7946 15.5757C55.0019 15.0101 55.105 14.4174 55.105 13.8H54.305ZM54.045 15.2961C53.8698 15.758 53.6331 16.1589 53.3363 16.5026L53.9417 17.0254C54.3036 16.6064 54.5869 16.1233 54.793 15.5799L54.045 15.2961ZM53.3353 16.5037C53.0598 16.8252 52.7216 17.0875 52.3161 17.2902L52.6739 18.0058C53.1698 17.7578 53.5943 17.4308 53.9427 17.0243L53.3353 16.5037ZM52.3219 17.2874C51.9451 17.4683 51.5366 17.56 51.091 17.56V18.36C51.6508 18.36 52.1783 18.2437 52.6681 18.0086L52.3219 17.2874ZM51.091 17.56C50.5832 17.56 50.1131 17.4729 49.6773 17.3017L49.3848 18.0463C49.9196 18.2564 50.4895 18.36 51.091 18.36V17.56ZM49.6886 17.3063C49.2649 17.1247 48.89 16.8437 48.5633 16.4547L47.9507 16.9693C48.352 17.447 48.8265 17.8073 49.3734 18.0417L49.6886 17.3063ZM48.5633 16.4547C48.2404 16.0703 47.9672 15.5563 47.7534 14.8984L46.9926 15.1456C47.2295 15.8744 47.5456 16.487 47.9507 16.9693L48.5633 16.4547ZM47.7561 14.9071C47.5624 14.2612 47.461 13.4701 47.461 12.526H46.661C46.661 13.5232 46.7676 14.3961 46.9899 15.1369L47.7561 14.9071ZM47.461 12.526C47.461 11.5638 47.5626 10.7642 47.7561 10.1189L46.9899 9.88906C46.7675 10.6305 46.661 11.5122 46.661 12.526H47.461ZM47.7534 10.1276C47.9672 9.46974 48.2404 8.95569 48.5633 8.57128L47.9507 8.05672C47.5456 8.53898 47.2295 9.15159 46.9926 9.88037L47.7534 10.1276ZM48.5624 8.57238C48.9066 8.1655 49.2873 7.8877 49.7033 7.7243L49.4108 6.9797C48.856 7.19763 48.3701 7.56116 47.9517 8.05562L48.5624 8.57238ZM49.7146 7.71966C50.1492 7.53338 50.6069 7.44 51.091 7.44V6.64C50.5005 6.64 49.9355 6.75462 49.3994 6.98434L49.7146 7.71966ZM51.091 7.44C51.517 7.44 51.9171 7.5308 52.2959 7.71261L52.6421 6.99139C52.1542 6.7572 51.6357 6.64 51.091 6.64V7.44ZM52.3079 7.71813C52.679 7.88141 53.0113 8.13567 53.3046 8.49075L53.9214 7.98125C53.5561 7.53899 53.1257 7.20393 52.6301 6.98587L52.3079 7.71813ZM53.3103 8.49745C53.6013 8.83441 53.838 9.25579 54.0147 9.77003L54.7713 9.50997C54.5667 8.91488 54.2834 8.40026 53.9157 7.97455L53.3103 8.49745ZM54.0185 9.78045C54.2067 10.2822 54.305 10.866 54.305 11.538H55.105C55.105 10.7887 54.9954 10.1071 54.7675 9.49955L54.0185 9.78045ZM54.305 11.538V13.8H55.105V11.538H54.305ZM63.7924 0.799999H64.1924V0.399999H63.7924V0.799999ZM61.5824 0.799999V0.399999H61.1824V0.799999H61.5824ZM61.5824 19H61.1824V19.4H61.5824V19ZM63.7924 19V19.4H64.1924V19H63.7924ZM63.7924 0.399999H61.5824V1.2H63.7924V0.399999ZM61.1824 0.799999V19H61.9824V0.799999H61.1824ZM61.5824 19.4H63.7924V18.6H61.5824V19.4ZM64.1924 19V0.799999H63.3924V19H64.1924ZM80.0205 13.072V13.472H80.4205V13.072H80.0205ZM79.5265 9.51L79.1535 9.65461L79.1535 9.65461L79.5265 9.51ZM78.1745 7.404L77.8916 7.68688L77.896 7.69116L78.1745 7.404ZM76.2245 6.156L76.085 6.53089L76.085 6.53089L76.2245 6.156ZM71.4145 6.208L71.5616 6.58006L71.5689 6.57698L71.4145 6.208ZM69.4645 7.534L69.7517 7.81249L69.7558 7.80815L69.4645 7.534ZM68.1645 9.64L68.538 9.78306L68.539 9.78045L68.1645 9.64ZM68.0865 14.97L67.7046 15.0893L67.7078 15.0989L68.0865 14.97ZM69.3085 17.18L68.9984 17.433L69.0059 17.4417L69.3085 17.18ZM71.3885 18.74L71.2156 19.1008L71.2246 19.1049L71.3885 18.74ZM77.4465 18.74L77.5974 19.1105L77.6032 19.108L77.4465 18.74ZM79.8905 17.05L80.1801 17.3259L80.4494 17.0432L80.1733 16.7672L79.8905 17.05ZM79.0585 16.218L79.3413 15.9352L79.0794 15.6732L78.7982 15.9143L79.0585 16.218ZM78.0185 17.076L77.7705 16.7619L77.7624 16.7687L78.0185 17.076ZM76.0165 18.142L76.1136 18.5303L76.1264 18.5266L76.0165 18.142ZM73.2865 18.064L73.175 18.4481L73.1822 18.4502L73.1895 18.4521L73.2865 18.064ZM71.7785 17.258L72.0312 16.9479L72.0312 16.9479L71.7785 17.258ZM70.6085 15.672L70.2453 15.8396L70.2453 15.8396L70.6085 15.672ZM70.1405 13.072V12.672H69.7405V13.072H70.1405ZM70.1405 12.032H69.7405V12.432H70.1405V12.032ZM70.3485 10.03L69.9592 9.93779L69.9575 9.94547L70.3485 10.03ZM71.0245 8.288L70.6845 8.07699L70.6794 8.08571L71.0245 8.288ZM72.1945 7.092L72.4077 7.43061L72.4164 7.42482L72.1945 7.092ZM76.7185 8.08L76.3902 8.30865L76.395 8.31527L76.7185 8.08ZM77.7585 12.032V12.432H78.1585V12.032H77.7585ZM80.4205 13.072V12.526H79.6205V13.072H80.4205ZM80.4205 12.526C80.4205 11.3282 80.2508 10.2716 79.8994 9.36539L79.1535 9.65461C79.4608 10.4471 79.6205 11.4011 79.6205 12.526H80.4205ZM79.8994 9.36539C79.5522 8.46998 79.0719 7.71703 78.4529 7.11684L77.896 7.69116C78.4211 8.2003 78.8421 8.85135 79.1535 9.65461L79.8994 9.36539ZM78.4573 7.12116C77.8615 6.5253 77.1624 6.07819 76.364 5.78111L76.085 6.53089C76.7773 6.78847 77.3782 7.17337 77.8916 7.68684L78.4573 7.12116ZM76.364 5.78111C75.572 5.48641 74.7359 5.34 73.8585 5.34V6.14C74.6451 6.14 75.3863 6.27092 76.085 6.53089L76.364 5.78111ZM73.8585 5.34C72.9265 5.34 72.0587 5.50469 71.26 5.83902L71.5689 6.57698C72.2609 6.28731 73.0225 6.14 73.8585 6.14V5.34ZM71.2674 5.83602C70.4669 6.15252 69.7678 6.62814 69.1732 7.25985L69.7558 7.80815C70.2705 7.26119 70.8714 6.85282 71.5615 6.57998L71.2674 5.83602ZM69.1773 7.25554C68.5802 7.87137 68.119 8.62198 67.79 9.49955L68.539 9.78045C68.8339 8.99402 69.2395 8.34063 69.7516 7.81246L69.1773 7.25554ZM67.7909 9.49694C67.4584 10.3651 67.2965 11.3423 67.2965 12.422H68.0965C68.0965 11.4217 68.2465 10.5442 68.538 9.78306L67.7909 9.49694ZM67.2965 12.422C67.2965 13.3294 67.4327 14.2189 67.7047 15.0893L68.4683 14.8507C68.2203 14.0571 68.0965 13.248 68.0965 12.422H67.2965ZM67.7078 15.0989C68.0003 15.9581 68.4307 16.7368 68.9985 17.4329L69.6184 16.9271C69.1116 16.3058 68.7273 15.6113 68.4651 14.8411L67.7078 15.0989ZM69.0059 17.4417C69.5996 18.1281 70.3385 18.6804 71.2156 19.1007L71.5613 18.3793C70.7745 18.0023 70.1267 17.5145 69.611 16.9183L69.0059 17.4417ZM71.2246 19.1049C72.1359 19.514 73.1906 19.712 74.3785 19.712V18.912C73.2784 18.912 72.3398 18.7286 71.5523 18.3751L71.2246 19.1049ZM74.3785 19.712C75.5345 19.712 76.609 19.5131 77.5974 19.1104L77.2956 18.3696C76.412 18.7295 75.4411 18.912 74.3785 18.912V19.712ZM77.6032 19.108C78.5887 18.6883 79.4488 18.0938 80.1801 17.3259L79.6008 16.7741C78.9455 17.4622 78.1762 17.9944 77.2897 18.372L77.6032 19.108ZM80.1733 16.7672L79.3413 15.9352L78.7756 16.5008L79.6076 17.3328L80.1733 16.7672ZM78.7982 15.9143C78.4377 16.2233 78.0952 16.5058 77.7706 16.762L78.2663 17.39C78.6004 17.1262 78.9513 16.8367 79.3188 16.5217L78.7982 15.9143ZM77.7624 16.7687C77.47 17.0124 77.1726 17.2129 76.8702 17.372L77.2428 18.08C77.5991 17.8924 77.9429 17.6596 78.2746 17.3833L77.7624 16.7687ZM76.8702 17.372C76.5656 17.5323 76.2446 17.6608 75.9066 17.7574L76.1264 18.5266C76.5164 18.4152 76.8887 18.2663 77.2428 18.08L76.8702 17.372ZM75.9195 17.7539C75.6104 17.8312 75.2538 17.872 74.8465 17.872V18.672C75.3059 18.672 75.7292 18.6261 76.1135 18.5301L75.9195 17.7539ZM74.8465 17.872C74.399 17.872 73.9119 17.808 73.3835 17.6759L73.1895 18.4521C73.7704 18.5973 74.3233 18.672 74.8465 18.672V17.872ZM73.398 17.6799C72.9162 17.54 72.4609 17.298 72.0312 16.9479L71.5258 17.5681C72.0321 17.9806 72.5821 18.276 73.175 18.4481L73.398 17.6799ZM72.0312 16.9479C71.6201 16.613 71.264 16.1377 70.9717 15.5044L70.2453 15.8396C70.577 16.5583 71.0009 17.1404 71.5258 17.5681L72.0312 16.9479ZM70.9717 15.5044C70.6919 14.8982 70.5405 14.0941 70.5405 13.072H69.7405C69.7405 14.1646 69.9011 15.0938 70.2453 15.8396L70.9717 15.5044ZM70.1405 13.472H80.0205V12.672H70.1405V13.472ZM70.5405 12.032C70.5405 11.3655 70.6071 10.7266 70.7395 10.1145L69.9575 9.94547C69.8125 10.6161 69.7405 11.3118 69.7405 12.032H70.5405ZM70.7377 10.1222C70.886 9.4961 71.0979 8.95363 71.3696 8.49029L70.6794 8.08571C70.3617 8.6277 70.123 9.24656 69.9593 9.93781L70.7377 10.1222ZM71.3643 8.49894C71.6466 8.04418 71.9945 7.69058 72.4076 7.43049L71.9814 6.75351C71.4584 7.08275 71.0264 7.52648 70.6846 8.07705L71.3643 8.49894ZM72.4164 7.42482C72.8098 7.16255 73.2847 7.024 73.8585 7.024V6.224C73.1496 6.224 72.5152 6.39745 71.9726 6.75918L72.4164 7.42482ZM73.8585 7.024C74.9646 7.024 75.7926 7.45037 76.3902 8.3086L77.0467 7.8514C76.2924 6.76829 75.2137 6.224 73.8585 6.224V7.024ZM76.395 8.31527C77.0214 9.17663 77.3585 10.4004 77.3585 12.032H78.1585C78.1585 10.3009 77.8022 8.89003 77.042 7.84473L76.395 8.31527ZM77.7585 11.632H70.1405V12.432H77.7585V11.632ZM91.7002 8.964V9.364H92.1002V8.964H91.7002ZM90.3222 6.65L90.091 6.97641L90.0986 6.98184L90.1066 6.98691L90.3222 6.65ZM88.8402 5.974L88.7209 6.35579L88.7279 6.35798L88.7349 6.3599L88.8402 5.974ZM85.3302 5.948L85.2186 5.56385L85.2152 5.56487L85.3302 5.948ZM83.9522 6.65L83.7056 6.33492L83.6989 6.34042L83.9522 6.65ZM83.0422 7.82L83.4 7.99891L83.4026 7.99353L83.0422 7.82ZM84.7062 12.552L84.8894 12.1964L84.8894 12.1964L84.7062 12.552ZM86.5522 13.28L86.4409 13.6644L86.4528 13.6675L86.5522 13.28ZM88.4242 13.878L88.2775 14.2503L88.2875 14.2539L88.4242 13.878ZM89.8542 14.684L89.5927 14.9867L89.5927 14.9867L89.8542 14.684ZM90.2962 16.79L89.9167 16.6635L89.9128 16.6751L89.9097 16.6869L90.2962 16.79ZM89.8802 17.518L90.163 17.8008L90.1687 17.7952L90.1741 17.7893L89.8802 17.518ZM89.0222 18.064L89.1646 18.4378L89.1722 18.4349L89.1797 18.4317L89.0222 18.064ZM85.8762 17.96L85.7026 18.3204L85.7105 18.3242L85.7186 18.3277L85.8762 17.96ZM84.7062 17.18L84.4154 17.4546L84.4232 17.463L84.4315 17.4708L84.7062 17.18ZM84.0562 16.244L83.6834 16.389L83.6868 16.3978L83.6906 16.4065L84.0562 16.244ZM83.8742 15.464H84.2742V15.064H83.8742V15.464ZM82.1842 15.464V15.064H81.7842V15.464H82.1842ZM82.5222 16.894L82.1617 17.0675L82.1644 17.0729L82.5222 16.894ZM83.5362 18.116L83.2848 18.4272L83.2906 18.4317L83.5362 18.116ZM85.2262 19L85.0966 19.3786L85.1085 19.3823L85.2262 19ZM91.1542 18.272L91.4166 18.5738L91.4171 18.5734L91.1542 18.272ZM91.7782 13.488L91.4594 13.7298L91.4648 13.7366L91.7782 13.488ZM90.3222 12.292L90.135 12.6456L90.1433 12.6498L90.3222 12.292ZM88.3982 11.538L88.2896 11.923L88.2921 11.9237L88.3982 11.538ZM86.5002 10.94L86.367 11.3172L86.367 11.3172L86.5002 10.94ZM85.0182 10.186L84.7735 10.5026L84.7804 10.5077L85.0182 10.186ZM84.5762 8.236L84.953 8.37056L84.9556 8.36249L84.5762 8.236ZM85.0182 7.534L85.301 7.81684L85.3067 7.81119L85.3121 7.80531L85.0182 7.534ZM85.8502 6.988L85.9987 7.35939L86.0066 7.35624L86.0143 7.35277L85.8502 6.988ZM88.5022 6.988L88.3507 7.35822L88.358 7.36121L88.3655 7.36392L88.5022 6.988ZM89.4642 7.534L89.2022 7.83628L89.2081 7.84143L89.2143 7.84635L89.4642 7.534ZM90.0362 8.236L90.3986 8.06685L90.3986 8.06684L90.0362 8.236ZM90.2182 8.964H89.8182V9.364H90.2182V8.964ZM92.1002 8.964C92.1002 8.42285 91.9588 7.91754 91.6779 7.45602L90.9945 7.87198C91.1989 8.2078 91.3002 8.56915 91.3002 8.964H92.1002ZM91.6779 7.45602C91.4004 7.00021 91.0171 6.61984 90.5378 6.31309L90.1066 6.98691C90.4939 7.23482 90.7866 7.53046 90.9945 7.87198L91.6779 7.45602ZM90.5534 6.32359C90.0935 5.99786 89.5553 5.75444 88.9454 5.58809L88.7349 6.3599C89.269 6.50556 89.7188 6.7128 90.091 6.97641L90.5534 6.32359ZM88.9595 5.59221C88.3624 5.40562 87.7238 5.314 87.0462 5.314V6.114C87.6512 6.114 88.2086 6.19571 88.7209 6.35579L88.9595 5.59221ZM87.0462 5.314C86.4049 5.314 85.7951 5.39649 85.2186 5.56386L85.4417 6.33214C85.9399 6.18751 86.4741 6.114 87.0462 6.114V5.314ZM85.2152 5.56487C84.651 5.73414 84.1463 5.99013 83.7056 6.335L84.1987 6.965C84.5554 6.68587 84.9693 6.47386 85.4451 6.33113L85.2152 5.56487ZM83.6989 6.34042C83.2699 6.6914 82.931 7.12876 82.6818 7.64647L83.4026 7.99353C83.604 7.57524 83.8718 7.2326 84.2055 6.95958L83.6989 6.34042ZM82.6844 7.64111C82.4262 8.15754 82.3042 8.74976 82.3042 9.406H83.1042C83.1042 8.8489 83.2075 8.3838 83.3999 7.99889L82.6844 7.64111ZM82.3042 9.406C82.3042 10.2966 82.5084 11.0523 82.9616 11.6291L83.5907 11.1349C83.2813 10.741 83.1042 10.1794 83.1042 9.406H82.3042ZM82.9616 11.6291C83.38 12.1616 83.9022 12.5878 84.523 12.9076L84.8894 12.1964C84.3662 11.9269 83.935 11.5731 83.5907 11.1349L82.9616 11.6291ZM84.523 12.9076C85.1194 13.2149 85.759 13.4668 86.4409 13.6642L86.6634 12.8958C86.028 12.7118 85.4369 12.4785 84.8894 12.1964L84.523 12.9076ZM86.4528 13.6675C87.1149 13.8372 87.7229 14.0317 88.2776 14.2502L88.5708 13.5058C87.9815 13.2737 87.3415 13.0694 86.6515 12.8925L86.4528 13.6675ZM88.2875 14.2539C88.823 14.4487 89.255 14.695 89.5927 14.9867L90.1156 14.3813C89.6907 14.0143 89.1693 13.7233 88.5609 13.5021L88.2875 14.2539ZM89.5927 14.9867C89.8736 15.2293 90.0262 15.5627 90.0262 16.036H90.8262C90.8262 15.3653 90.5974 14.7973 90.1156 14.3813L89.5927 14.9867ZM90.0262 16.036C90.0262 16.2305 89.9915 16.4391 89.9167 16.6635L90.6756 16.9165C90.7742 16.6209 90.8262 16.3268 90.8262 16.036H90.0262ZM89.9097 16.6869C89.8593 16.8759 89.7564 17.0624 89.5863 17.2467L90.1741 17.7893C90.4199 17.523 90.5944 17.2241 90.6827 16.8931L89.9097 16.6869ZM89.5973 17.2352C89.4354 17.3971 89.1971 17.5539 88.8646 17.6963L89.1797 18.4317C89.5753 18.2621 89.9089 18.0549 90.163 17.8008L89.5973 17.2352ZM88.8798 17.6902C88.5761 17.8059 88.1691 17.872 87.6442 17.872V18.672C88.2285 18.672 88.7402 18.5995 89.1646 18.4378L88.8798 17.6902ZM87.6442 17.872C86.9889 17.872 86.4563 17.7735 86.0337 17.5923L85.7186 18.3277C86.2667 18.5625 86.9128 18.672 87.6442 18.672V17.872ZM86.0497 17.5996C85.6113 17.3885 85.2574 17.1504 84.9808 16.8892L84.4315 17.4708C84.779 17.799 85.2051 18.0808 85.7026 18.3204L86.0497 17.5996ZM84.997 16.9054C84.7257 16.6182 84.538 16.3431 84.4217 16.0815L83.6906 16.4065C83.8517 16.7689 84.0973 17.1178 84.4154 17.4546L84.997 16.9054ZM84.429 16.099C84.316 15.8085 84.2742 15.6014 84.2742 15.464H83.4742C83.4742 15.7426 83.5537 16.0555 83.6834 16.389L84.429 16.099ZM83.8742 15.064H82.1842V15.864H83.8742V15.064ZM81.7842 15.464C81.7842 16.0136 81.9122 16.5493 82.1618 17.0675L82.8826 16.7205C82.6814 16.3027 82.5842 15.8851 82.5842 15.464H81.7842ZM82.1644 17.0729C82.4189 17.5819 82.7963 18.0326 83.2848 18.4272L83.7875 17.8048C83.3747 17.4714 83.0761 17.1074 82.8799 16.7151L82.1644 17.0729ZM83.2906 18.4317C83.799 18.8272 84.4033 19.1412 85.0967 19.3785L85.3556 18.6215C84.7318 18.4081 84.2093 18.1328 83.7817 17.8003L83.2906 18.4317ZM85.1085 19.3823C85.8308 19.6045 86.6518 19.712 87.5662 19.712V18.912C86.7125 18.912 85.9736 18.8115 85.3438 18.6177L85.1085 19.3823ZM87.5662 19.712C89.2098 19.712 90.5173 19.3559 91.4166 18.5738L90.8917 17.9702C90.1964 18.5748 89.1118 18.912 87.5662 18.912V19.712ZM91.4171 18.5734C92.3245 17.7819 92.7762 16.7419 92.7762 15.49H91.9762C91.9762 16.5261 91.6132 17.3407 90.8912 17.9706L91.4171 18.5734ZM92.7762 15.49C92.7762 14.5948 92.5611 13.8314 92.0916 13.2394L91.4648 13.7366C91.7926 14.1499 91.9762 14.7212 91.9762 15.49H92.7762ZM92.0968 13.2462C91.6768 12.6925 91.1428 12.2551 90.5011 11.9342L90.1433 12.6498C90.6802 12.9182 91.1169 13.2781 91.4595 13.7298L92.0968 13.2462ZM90.5093 11.9385C89.8923 11.6118 89.2235 11.3501 88.5042 11.1523L88.2921 11.9237C88.9595 12.1072 89.5734 12.3482 90.135 12.6455L90.5093 11.9385ZM88.5068 11.153C87.838 10.9644 87.2136 10.7676 86.6333 10.5628L86.367 11.3172C86.9654 11.5284 87.6063 11.7303 88.2896 11.923L88.5068 11.153ZM86.6333 10.5628C86.0721 10.3647 85.6156 10.1302 85.2559 9.86433L84.7804 10.5077C85.2181 10.8311 85.7496 11.0993 86.367 11.3172L86.6333 10.5628ZM85.2628 9.86949C84.9916 9.66 84.8462 9.36774 84.8462 8.938H84.0462C84.0462 9.58292 84.282 10.1227 84.7736 10.5025L85.2628 9.86949ZM84.8462 8.938C84.8462 8.76458 84.8794 8.57613 84.9529 8.37053L84.1995 8.10146C84.0996 8.3812 84.0462 8.66075 84.0462 8.938H84.8462ZM84.9556 8.36249C85.0213 8.16566 85.1336 7.98422 85.301 7.81684L84.7353 7.25116C84.4867 7.49978 84.3044 7.78633 84.1967 8.10951L84.9556 8.36249ZM85.3121 7.80531C85.4719 7.63222 85.6955 7.48066 85.9987 7.35939L85.7016 6.61661C85.3115 6.77267 84.9805 6.98511 84.7243 7.26269L85.3121 7.80531ZM86.0143 7.35277C86.2941 7.22687 86.6672 7.154 87.1502 7.154V6.354C86.5932 6.354 86.0996 6.43713 85.686 6.62323L86.0143 7.35277ZM87.1502 7.154C87.6313 7.154 88.0283 7.2263 88.3507 7.35822L88.6536 6.61778C88.2134 6.4377 87.709 6.354 87.1502 6.354V7.154ZM88.3655 7.36392C88.709 7.48882 88.9851 7.64811 89.2022 7.83628L89.7261 7.23172C89.4233 6.96922 89.058 6.76451 88.6389 6.61208L88.3655 7.36392ZM89.2143 7.84635C89.434 8.02207 89.5823 8.20921 89.6737 8.40515L90.3986 8.06684C90.2474 7.74279 90.0144 7.46193 89.7141 7.22165L89.2143 7.84635ZM89.6737 8.40515C89.7768 8.62618 89.8182 8.81081 89.8182 8.964H90.6182C90.6182 8.66653 90.5382 8.36582 90.3986 8.06685L89.6737 8.40515ZM90.2182 9.364H91.7002V8.564H90.2182V9.364Z" fill="#333333"/>
</svg>
