<svg width="175" height="27" viewBox="0 0 175 27" fill="none" xmlns="http://www.w3.org/2000/svg">
<path d="M11.448 0.00805664C12.888 0.00805664 14.112 0.212057 15.12 0.620057C16.128 1.02806 17.112 1.60406 18.072 2.34806C18.336 2.56406 18.564 2.67206 18.756 2.67206C19.236 2.67206 19.548 1.95206 19.692 0.512059H20.52C20.424 2.07206 20.376 4.83206 20.376 8.79206H19.548C19.284 7.23206 19.044 6.11606 18.828 5.44406C18.612 4.74806 18.252 4.08806 17.748 3.46406C17.028 2.52806 16.104 1.83206 14.976 1.37606C13.872 0.896057 12.672 0.656057 11.376 0.656057C9.816 0.656057 8.448 1.17206 7.272 2.20406C6.12 3.23606 5.22 4.71206 4.572 6.63206C3.924 8.52806 3.6 10.7601 3.6 13.3281C3.6 15.9441 3.948 18.1881 4.644 20.0601C5.34 21.9321 6.3 23.3601 7.524 24.3441C8.772 25.3041 10.176 25.7841 11.736 25.7841C12.936 25.7841 14.1 25.5561 15.228 25.1001C16.356 24.6441 17.244 23.9601 17.892 23.0481C18.372 22.3761 18.72 21.6561 18.936 20.8881C19.152 20.1201 19.356 18.9441 19.548 17.3601H20.376C20.376 21.4881 20.424 24.3681 20.52 26.0001H19.692C19.62 25.2321 19.512 24.6921 19.368 24.3801C19.248 24.0441 19.068 23.8761 18.828 23.8761C18.636 23.8761 18.384 23.9721 18.072 24.1641C16.992 24.9321 15.96 25.5201 14.976 25.9281C13.992 26.3121 12.804 26.5041 11.412 26.5041C9.132 26.5041 7.128 25.9881 5.4 24.9561C3.696 23.9241 2.364 22.4361 1.404 20.4921C0.468 18.5241 0 16.1841 0 13.4721C0 10.8321 0.48 8.49206 1.44 6.45206C2.424 4.41206 3.78 2.82806 5.508 1.70006C7.26 0.572057 9.24 0.00805664 11.448 0.00805664Z" fill="#333333"/>
<path d="M52.2172 1.23206C51.3532 1.28006 50.7172 1.37606 50.3092 1.52006C49.9252 1.66406 49.6612 1.94006 49.5172 2.34806C49.3732 2.75606 49.3012 3.41606 49.3012 4.32806V22.1841C49.3012 23.0961 49.3732 23.7561 49.5172 24.1641C49.6612 24.5721 49.9252 24.8481 50.3092 24.9921C50.7172 25.1361 51.3532 25.2321 52.2172 25.2801V26.0001C51.2092 25.9281 49.6732 25.8921 47.6092 25.8921C45.6652 25.8921 44.1412 25.9281 43.0372 26.0001V25.2801C43.9012 25.2321 44.5252 25.1361 44.9092 24.9921C45.3172 24.8481 45.5932 24.5721 45.7372 24.1641C45.8812 23.7561 45.9532 23.0961 45.9532 22.1841V13.5441H34.2532V22.1841C34.2532 23.0961 34.3252 23.7561 34.4692 24.1641C34.6132 24.5721 34.8772 24.8481 35.2612 24.9921C35.6692 25.1361 36.3052 25.2321 37.1692 25.2801V26.0001C36.0652 25.9281 34.5412 25.8921 32.5972 25.8921C30.5332 25.8921 28.9972 25.9281 27.9892 26.0001V25.2801C28.8532 25.2321 29.4772 25.1361 29.8612 24.9921C30.2692 24.8481 30.5452 24.5721 30.6892 24.1641C30.8332 23.7561 30.9052 23.0961 30.9052 22.1841V4.32806C30.9052 3.41606 30.8332 2.75606 30.6892 2.34806C30.5452 1.94006 30.2692 1.66406 29.8612 1.52006C29.4772 1.37606 28.8532 1.28006 27.9892 1.23206V0.512059C28.9972 0.584058 30.5332 0.620057 32.5972 0.620057C34.5172 0.620057 36.0412 0.584058 37.1692 0.512059V1.23206C36.3052 1.28006 35.6692 1.37606 35.2612 1.52006C34.8772 1.66406 34.6132 1.94006 34.4692 2.34806C34.3252 2.75606 34.2532 3.41606 34.2532 4.32806V12.8241H45.9532V4.32806C45.9532 3.41606 45.8812 2.75606 45.7372 2.34806C45.5932 1.94006 45.3172 1.66406 44.9092 1.52006C44.5252 1.37606 43.9012 1.28006 43.0372 1.23206V0.512059C44.1412 0.584058 45.6652 0.620057 47.6092 0.620057C49.6732 0.620057 51.2092 0.584058 52.2172 0.512059V1.23206Z" fill="#333333"/>
<path d="M77.2673 21.3921C77.2673 22.7601 77.3512 24.2961 77.5192 26.0001C75.8872 25.9281 73.1393 25.8921 69.2753 25.8921C64.6673 25.8921 61.1873 25.9281 58.8353 26.0001V25.2801C59.6993 25.2321 60.3233 25.1361 60.7073 24.9921C61.1153 24.8481 61.3913 24.5721 61.5353 24.1641C61.6793 23.7561 61.7513 23.0961 61.7513 22.1841V4.32806C61.7513 3.41606 61.6793 2.75606 61.5353 2.34806C61.3913 1.94006 61.1153 1.66406 60.7073 1.52006C60.3233 1.37606 59.6993 1.28006 58.8353 1.23206V0.512059C61.1873 0.584058 64.6673 0.620057 69.2753 0.620057C72.8033 0.620057 75.3112 0.584058 76.7992 0.512059C76.6312 2.09606 76.5472 3.51206 76.5472 4.76006C76.5472 5.69606 76.5833 6.44006 76.6553 6.99206H75.8272C75.6592 5.43206 75.4433 4.28006 75.1793 3.53606C74.9153 2.76806 74.4713 2.21606 73.8473 1.88006C73.2233 1.52006 72.2753 1.34006 71.0033 1.34006H68.0153C67.1513 1.34006 66.5153 1.41206 66.1073 1.55606C65.7233 1.67606 65.4593 1.94006 65.3153 2.34806C65.1713 2.75606 65.0993 3.41606 65.0993 4.32806V12.8241H67.4753C68.3153 12.8241 68.9632 12.6321 69.4193 12.2481C69.8753 11.8401 70.1753 11.3721 70.3193 10.8441C70.4873 10.2921 70.6192 9.60806 70.7152 8.79206L70.8232 8.07206H71.6513C71.5793 9.08006 71.5433 10.2081 71.5433 11.4561V13.1841C71.5433 14.4081 71.6153 16.1121 71.7593 18.2961H70.9313C70.9073 18.1281 70.8352 17.5521 70.7152 16.5681C70.5952 15.5601 70.2593 14.8041 69.7073 14.3001C69.1793 13.7961 68.4353 13.5441 67.4753 13.5441H65.0993V22.1841C65.0993 23.0961 65.1713 23.7561 65.3153 24.1641C65.4593 24.5721 65.7233 24.8481 66.1073 24.9921C66.5153 25.1121 67.1513 25.1721 68.0153 25.1721H70.6432C72.1312 25.1721 73.2593 24.9801 74.0273 24.5961C74.8193 24.1881 75.3952 23.5521 75.7552 22.6881C76.1152 21.8001 76.3792 20.5041 76.5472 18.8001H77.3753C77.3033 19.4481 77.2673 20.3121 77.2673 21.3921Z" fill="#333333"/>
<path d="M102.805 21.3921C102.805 22.7601 102.889 24.2961 103.057 26.0001C101.425 25.9281 98.6768 25.8921 94.8128 25.8921C90.2048 25.8921 86.7247 25.9281 84.3727 26.0001V25.2801C85.2367 25.2321 85.8608 25.1361 86.2448 24.9921C86.6528 24.8481 86.9288 24.5721 87.0728 24.1641C87.2168 23.7561 87.2887 23.0961 87.2887 22.1841V4.32806C87.2887 3.41606 87.2168 2.75606 87.0728 2.34806C86.9288 1.94006 86.6528 1.66406 86.2448 1.52006C85.8608 1.37606 85.2367 1.28006 84.3727 1.23206V0.512059C86.7247 0.584058 90.2048 0.620057 94.8128 0.620057C98.3408 0.620057 100.849 0.584058 102.337 0.512059C102.169 2.09606 102.085 3.51206 102.085 4.76006C102.085 5.69606 102.121 6.44006 102.193 6.99206H101.365C101.197 5.43206 100.981 4.28006 100.717 3.53606C100.453 2.76806 100.009 2.21606 99.3848 1.88006C98.7608 1.52006 97.8128 1.34006 96.5408 1.34006H93.5528C92.6888 1.34006 92.0528 1.41206 91.6448 1.55606C91.2608 1.67606 90.9968 1.94006 90.8528 2.34806C90.7088 2.75606 90.6368 3.41606 90.6368 4.32806V12.8241H93.0128C93.8528 12.8241 94.5008 12.6321 94.9568 12.2481C95.4128 11.8401 95.7128 11.3721 95.8568 10.8441C96.0248 10.2921 96.1568 9.60806 96.2528 8.79206L96.3608 8.07206H97.1888C97.1168 9.08006 97.0807 10.2081 97.0807 11.4561V13.1841C97.0807 14.4081 97.1528 16.1121 97.2968 18.2961H96.4688C96.4447 18.1281 96.3728 17.5521 96.2528 16.5681C96.1328 15.5601 95.7968 14.8041 95.2448 14.3001C94.7168 13.7961 93.9728 13.5441 93.0128 13.5441H90.6368V22.1841C90.6368 23.0961 90.7088 23.7561 90.8528 24.1641C90.9968 24.5721 91.2608 24.8481 91.6448 24.9921C92.0528 25.1121 92.6888 25.1721 93.5528 25.1721H96.1808C97.6688 25.1721 98.7968 24.9801 99.5648 24.5961C100.357 24.1881 100.933 23.5521 101.293 22.6881C101.653 21.8001 101.917 20.5041 102.085 18.8001H102.913C102.841 19.4481 102.805 20.3121 102.805 21.3921Z" fill="#333333"/>
<path d="M117.614 0.116057C118.67 0.116057 119.498 0.236057 120.098 0.476057C120.722 0.692057 121.358 1.01606 122.006 1.44806C122.534 1.78406 122.942 1.95206 123.23 1.95206C123.446 1.95206 123.614 1.83206 123.734 1.59206C123.854 1.32806 123.95 0.920058 124.022 0.368058H124.85C124.73 1.76006 124.67 4.20806 124.67 7.71206H123.842C123.698 5.76806 123.134 4.13606 122.15 2.81606C121.19 1.47206 119.786 0.800057 117.938 0.800057C116.642 0.800057 115.586 1.19606 114.77 1.98806C113.954 2.75606 113.546 3.75206 113.546 4.97606C113.546 5.88806 113.75 6.68006 114.158 7.35206C114.59 8.02406 115.13 8.60006 115.778 9.08006C116.426 9.56006 117.35 10.1721 118.55 10.9161L119.594 11.5641C121.106 12.5001 122.294 13.3281 123.158 14.0481C124.046 14.7441 124.754 15.5481 125.282 16.4601C125.81 17.3721 126.074 18.4401 126.074 19.6641C126.074 21.8481 125.354 23.5401 123.914 24.7401C122.474 25.9161 120.65 26.5041 118.442 26.5041C117.29 26.5041 116.342 26.3841 115.598 26.1441C114.878 25.9041 114.182 25.5801 113.51 25.1721C112.982 24.8361 112.574 24.6681 112.286 24.6681C112.07 24.6681 111.902 24.8001 111.782 25.0641C111.662 25.3041 111.566 25.7001 111.494 26.2521H110.666C110.762 24.9321 110.81 22.0521 110.81 17.6121H111.638C111.806 20.0361 112.406 22.0041 113.438 23.5161C114.47 25.0281 116.054 25.7841 118.19 25.7841C119.486 25.7841 120.59 25.3881 121.502 24.5961C122.414 23.7801 122.87 22.5801 122.87 20.9961C122.87 19.6521 122.414 18.5121 121.502 17.5761C120.614 16.6401 119.198 15.5841 117.254 14.4081C115.838 13.5441 114.686 12.7761 113.798 12.1041C112.934 11.4321 112.226 10.6281 111.674 9.69206C111.122 8.73206 110.846 7.61606 110.846 6.34406C110.846 4.32806 111.494 2.79206 112.79 1.73606C114.086 0.656058 115.694 0.116057 117.614 0.116057Z" fill="#333333"/>
<path d="M151.384 21.3921C151.384 22.7601 151.468 24.2961 151.636 26.0001C150.004 25.9281 147.256 25.8921 143.392 25.8921C138.784 25.8921 135.304 25.9281 132.952 26.0001V25.2801C133.816 25.2321 134.44 25.1361 134.824 24.9921C135.232 24.8481 135.508 24.5721 135.652 24.1641C135.796 23.7561 135.868 23.0961 135.868 22.1841V4.32806C135.868 3.41606 135.796 2.75606 135.652 2.34806C135.508 1.94006 135.232 1.66406 134.824 1.52006C134.44 1.37606 133.816 1.28006 132.952 1.23206V0.512059C135.304 0.584058 138.784 0.620057 143.392 0.620057C146.92 0.620057 149.428 0.584058 150.916 0.512059C150.748 2.09606 150.664 3.51206 150.664 4.76006C150.664 5.69606 150.7 6.44006 150.772 6.99206H149.944C149.776 5.43206 149.56 4.28006 149.296 3.53606C149.032 2.76806 148.588 2.21606 147.964 1.88006C147.34 1.52006 146.392 1.34006 145.12 1.34006H142.132C141.268 1.34006 140.632 1.41206 140.224 1.55606C139.84 1.67606 139.576 1.94006 139.432 2.34806C139.288 2.75606 139.216 3.41606 139.216 4.32806V12.8241H141.592C142.432 12.8241 143.08 12.6321 143.536 12.2481C143.992 11.8401 144.292 11.3721 144.436 10.8441C144.604 10.2921 144.736 9.60806 144.832 8.79206L144.94 8.07206H145.768C145.696 9.08006 145.66 10.2081 145.66 11.4561V13.1841C145.66 14.4081 145.732 16.1121 145.876 18.2961H145.048C145.024 18.1281 144.952 17.5521 144.832 16.5681C144.712 15.5601 144.376 14.8041 143.824 14.3001C143.296 13.7961 142.552 13.5441 141.592 13.5441H139.216V22.1841C139.216 23.0961 139.288 23.7561 139.432 24.1641C139.576 24.5721 139.84 24.8481 140.224 24.9921C140.632 25.1121 141.268 25.1721 142.132 25.1721H144.76C146.248 25.1721 147.376 24.9801 148.144 24.5961C148.936 24.1881 149.512 23.5521 149.872 22.6881C150.232 21.8001 150.496 20.5041 150.664 18.8001H151.492C151.42 19.4481 151.384 20.3121 151.384 21.3921Z" fill="#333333"/>
<path d="M166.193 0.116057C167.249 0.116057 168.077 0.236057 168.677 0.476057C169.301 0.692057 169.937 1.01606 170.585 1.44806C171.113 1.78406 171.521 1.95206 171.809 1.95206C172.025 1.95206 172.193 1.83206 172.313 1.59206C172.433 1.32806 172.529 0.920058 172.601 0.368058H173.429C173.309 1.76006 173.249 4.20806 173.249 7.71206H172.421C172.277 5.76806 171.713 4.13606 170.729 2.81606C169.769 1.47206 168.365 0.800057 166.517 0.800057C165.221 0.800057 164.165 1.19606 163.349 1.98806C162.533 2.75606 162.125 3.75206 162.125 4.97606C162.125 5.88806 162.329 6.68006 162.737 7.35206C163.169 8.02406 163.709 8.60006 164.357 9.08006C165.005 9.56006 165.929 10.1721 167.129 10.9161L168.173 11.5641C169.685 12.5001 170.873 13.3281 171.737 14.0481C172.625 14.7441 173.333 15.5481 173.861 16.4601C174.389 17.3721 174.653 18.4401 174.653 19.6641C174.653 21.8481 173.933 23.5401 172.493 24.7401C171.053 25.9161 169.229 26.5041 167.021 26.5041C165.869 26.5041 164.921 26.3841 164.177 26.1441C163.457 25.9041 162.761 25.5801 162.089 25.1721C161.561 24.8361 161.153 24.6681 160.865 24.6681C160.649 24.6681 160.481 24.8001 160.361 25.0641C160.241 25.3041 160.145 25.7001 160.073 26.2521H159.245C159.341 24.9321 159.389 22.0521 159.389 17.6121H160.217C160.385 20.0361 160.985 22.0041 162.017 23.5161C163.049 25.0281 164.633 25.7841 166.769 25.7841C168.065 25.7841 169.169 25.3881 170.081 24.5961C170.993 23.7801 171.449 22.5801 171.449 20.9961C171.449 19.6521 170.993 18.5121 170.081 17.5761C169.193 16.6401 167.777 15.5841 165.833 14.4081C164.417 13.5441 163.265 12.7761 162.377 12.1041C161.513 11.4321 160.805 10.6281 160.253 9.69206C159.701 8.73206 159.425 7.61606 159.425 6.34406C159.425 4.32806 160.073 2.79206 161.369 1.73606C162.665 0.656058 164.273 0.116057 166.193 0.116057Z" fill="#333333"/>
</svg>
