<svg width="173" height="32" viewBox="0 0 173 32" fill="none" xmlns="http://www.w3.org/2000/svg">
<path d="M41.7548 9.712H36.9708V25H32.1608V9.712H27.3508V5.5H41.7548V9.712ZM48.2065 25.26C46.8545 25.26 45.6151 24.9653 44.4885 24.376C43.3618 23.7693 42.4691 22.9547 41.8105 21.932C41.1691 20.892 40.8485 19.748 40.8485 18.5C40.8485 17.252 41.1691 16.1167 41.8105 15.094C42.4691 14.054 43.3618 13.2393 44.4885 12.65C45.6151 12.0433 46.8545 11.74 48.2065 11.74C49.5585 11.74 50.7978 12.0433 51.9245 12.65C53.0511 13.2393 53.9351 14.054 54.5765 15.094C55.2351 16.1167 55.5645 17.252 55.5645 18.5C55.5645 19.748 55.2351 20.892 54.5765 21.932C53.9351 22.9547 53.0511 23.7693 51.9245 24.376C50.7978 24.9653 49.5585 25.26 48.2065 25.26ZM48.2065 21.178C48.9518 21.178 49.5845 20.918 50.1045 20.398C50.6245 19.878 50.8845 19.2453 50.8845 18.5C50.8845 17.7547 50.6245 17.122 50.1045 16.602C49.5845 16.082 48.9518 15.822 48.2065 15.822C47.4611 15.822 46.8285 16.082 46.3085 16.602C45.7885 17.1047 45.5285 17.7373 45.5285 18.5C45.5285 19.2453 45.7885 19.878 46.3085 20.398C46.8285 20.918 47.4611 21.178 48.2065 21.178ZM64.7358 25.26C63.3838 25.26 62.1444 24.9653 61.0178 24.376C59.8911 23.7693 58.9984 22.9547 58.3398 21.932C57.6984 20.892 57.3778 19.748 57.3778 18.5C57.3778 17.252 57.6984 16.1167 58.3398 15.094C58.9984 14.054 59.8911 13.2393 61.0178 12.65C62.1444 12.0433 63.3838 11.74 64.7358 11.74C66.0878 11.74 67.3271 12.0433 68.4538 12.65C69.5804 13.2393 70.4644 14.054 71.1058 15.094C71.7644 16.1167 72.0938 17.252 72.0938 18.5C72.0938 19.748 71.7644 20.892 71.1058 21.932C70.4644 22.9547 69.5804 23.7693 68.4538 24.376C67.3271 24.9653 66.0878 25.26 64.7358 25.26ZM64.7358 21.178C65.4811 21.178 66.1138 20.918 66.6338 20.398C67.1538 19.878 67.4138 19.2453 67.4138 18.5C67.4138 17.7547 67.1538 17.122 66.6338 16.602C66.1138 16.082 65.4811 15.822 64.7358 15.822C63.9904 15.822 63.3578 16.082 62.8378 16.602C62.3178 17.1047 62.0578 17.7373 62.0578 18.5C62.0578 19.2453 62.3178 19.878 62.8378 20.398C63.3578 20.918 63.9904 21.178 64.7358 21.178ZM82.6951 15.484H80.3811V25H75.7011V15.484H73.3871V12H75.7011V7.32H80.3811V12H82.6951V15.484ZM93.2691 11.74C94.2051 11.74 95.0371 11.9567 95.7651 12.39C96.4931 12.8233 97.0565 13.43 97.4551 14.21C97.8711 14.9727 98.0791 15.8307 98.0791 16.784V25H93.3991V17.382C93.3991 16.8967 93.2345 16.5153 92.9051 16.238C92.5931 15.9607 92.1771 15.822 91.6571 15.822C91.0505 15.822 90.5478 16.004 90.1491 16.368C89.7678 16.7147 89.5771 17.148 89.5771 17.668V25H84.8971V4.2H89.5771V13.534C90.4958 12.338 91.7265 11.74 93.2691 11.74ZM109.539 11.74C110.7 11.74 111.758 12.0433 112.711 12.65C113.682 13.2393 114.444 14.054 114.999 15.094C115.571 16.1167 115.857 17.252 115.857 18.5C115.857 19.748 115.571 20.892 114.999 21.932C114.444 22.9547 113.682 23.7693 112.711 24.376C111.758 24.9653 110.7 25.26 109.539 25.26C108.204 25.26 107.052 24.844 106.081 24.012V25H101.401V4.2H106.081V12.988C107.052 12.156 108.204 11.74 109.539 11.74ZM108.499 21.178C109.262 21.178 109.894 20.918 110.397 20.398C110.917 19.878 111.177 19.2453 111.177 18.5C111.177 17.7373 110.917 17.1047 110.397 16.602C109.894 16.082 109.262 15.822 108.499 15.822C107.754 15.822 107.121 16.082 106.601 16.602C106.081 17.122 105.821 17.7547 105.821 18.5C105.821 19.2453 106.081 19.878 106.601 20.398C107.121 20.918 107.754 21.178 108.499 21.178ZM126.339 11.844C126.703 11.844 127.006 11.896 127.249 12V16.056C126.815 15.9693 126.443 15.926 126.131 15.926C125.247 15.926 124.545 16.186 124.025 16.706C123.522 17.2087 123.271 17.9627 123.271 18.968V25H118.591V12H123.271V13.794C123.652 13.17 124.103 12.6933 124.623 12.364C125.16 12.0173 125.732 11.844 126.339 11.844ZM135.493 25.26C133.43 25.26 131.844 24.792 130.735 23.856C129.625 22.9027 129.071 21.594 129.071 19.93V12H133.751V19.332C133.751 19.852 133.915 20.294 134.245 20.658C134.591 21.0047 135.007 21.178 135.493 21.178C135.995 21.178 136.411 21.0047 136.741 20.658C137.087 20.294 137.261 19.852 137.261 19.332V12H141.941V19.93C141.941 21.5767 141.386 22.8767 140.277 23.83C139.167 24.7833 137.573 25.26 135.493 25.26ZM150.247 25.26C147.82 25.26 145.749 24.8267 144.033 23.96L146.113 20.476C146.702 20.8573 147.352 21.178 148.063 21.438C148.791 21.6807 149.406 21.802 149.909 21.802C150.585 21.802 150.923 21.6027 150.923 21.204C150.923 20.9093 150.75 20.684 150.403 20.528C150.074 20.3547 149.545 20.1727 148.817 19.982L147.595 19.618C145.532 18.9247 144.501 17.7287 144.501 16.03C144.501 15.2153 144.735 14.4873 145.203 13.846C145.671 13.1873 146.347 12.676 147.231 12.312C148.115 11.9307 149.155 11.74 150.351 11.74C151.114 11.74 151.972 11.8353 152.925 12.026C153.878 12.2167 154.788 12.572 155.655 13.092L153.523 16.056C153.072 15.7613 152.509 15.5013 151.833 15.276C151.174 15.0507 150.585 14.938 150.065 14.938C149.441 14.938 149.129 15.12 149.129 15.484C149.129 15.7093 149.276 15.9 149.571 16.056C149.883 16.1947 150.377 16.3507 151.053 16.524C151.59 16.68 151.876 16.7667 151.911 16.784C152.968 17.1133 153.861 17.5987 154.589 18.24C155.334 18.864 155.707 19.7047 155.707 20.762C155.707 22.0967 155.248 23.18 154.329 24.012C153.428 24.844 152.067 25.26 150.247 25.26ZM166.597 11.74C167.533 11.74 168.365 11.9567 169.093 12.39C169.821 12.8233 170.385 13.43 170.783 14.21C171.199 14.9727 171.407 15.8307 171.407 16.784V25H166.727V17.382C166.727 16.8967 166.563 16.5153 166.233 16.238C165.921 15.9607 165.505 15.822 164.985 15.822C164.379 15.822 163.876 16.004 163.477 16.368C163.096 16.7147 162.905 17.148 162.905 17.668V25H158.225V4.2H162.905V13.534C163.824 12.338 165.055 11.74 166.597 11.74Z" fill="#142B6F"/>
<path d="M12.5903 16.4029V14.6022H11.0083V16.4029H6.65766V14.6022H5.07563V16.4029H1.28313V10.9833H2.64569C2.0076 10.0718 1.68339 8.97755 1.72637 7.85294C1.77572 6.563 2.30338 5.3499 3.21237 4.43713L3.64758 4L4.1764 4.31628C4.18416 4.32088 4.95888 4.78079 6.05886 5.14314C7.03962 5.46614 8.47093 5.76786 9.72079 5.37119C10.298 5.188 10.8545 5.06132 11.3748 4.99475C12.9361 4.79503 14.4692 5.54294 15.2803 6.90051C16.0323 8.15921 16.0364 9.72105 15.2932 10.9834H16.3828V16.4029H12.5903Z" fill="#142B6F"/>
<path d="M17.666 17.9916V19.438H27V25H3.42773C1.53768 25 0 23.4557 0 21.5576V17.9916H17.666Z" fill="#142B6F"/>
<path d="M17 11H1V10.5601H2.44381C1.76768 9.70377 1.42411 8.67588 1.46964 7.61943C1.52194 6.40766 2.08108 5.26808 3.04425 4.41064L3.50543 4L4.06579 4.29711C4.07399 4.30144 4.89493 4.73347 6.06049 5.07386C7.09975 5.37729 8.61642 5.66071 9.9408 5.28808C10.5524 5.116 11.1421 4.997 11.6934 4.93446C13.3478 4.74685 14.9723 5.44942 15.8318 6.72472C16.6286 7.90714 16.6329 9.37432 15.8455 10.5601H17V11Z" fill="#FFDD0E"/>
</svg>
