<svg width="137" height="34" viewBox="0 0 137 34" fill="none" xmlns="http://www.w3.org/2000/svg">
<path d="M6.30957 12.543C6.05566 11.7728 5.86947 11.1211 5.75098 10.5879C5.64095 10.0462 5.58594 9.59766 5.58594 9.24219C5.58594 9.01367 5.60286 8.78939 5.63672 8.56934C5.67057 8.34928 5.73828 8.15039 5.83984 7.97266C5.94141 7.79492 6.08105 7.65104 6.25879 7.54102C6.43652 7.43099 6.66504 7.37598 6.94434 7.37598C7.22363 7.37598 7.44792 7.43099 7.61719 7.54102C7.79492 7.65104 7.93457 7.79492 8.03613 7.97266C8.1377 8.15039 8.2054 8.34928 8.23926 8.56934C8.27311 8.78939 8.29004 9.01367 8.29004 9.24219C8.29004 9.60612 8.23079 10.0547 8.1123 10.5879C8.00228 11.1211 7.82031 11.7728 7.56641 12.543C8.06576 12.179 8.50586 11.8786 8.88672 11.6416C9.26758 11.3962 9.61035 11.2015 9.91504 11.0576C10.2197 10.9137 10.4906 10.8122 10.7275 10.7529C10.973 10.6937 11.2057 10.6641 11.4258 10.6641C11.5612 10.6641 11.7051 10.6895 11.8574 10.7402C12.0182 10.7826 12.1621 10.8545 12.2891 10.9561C12.4245 11.0576 12.5345 11.1973 12.6191 11.375C12.7038 11.5443 12.7461 11.7559 12.7461 12.0098C12.7461 12.2044 12.7038 12.3779 12.6191 12.5303C12.543 12.6742 12.4372 12.8053 12.3018 12.9238C12.1748 13.0339 12.0225 13.1312 11.8447 13.2158C11.6755 13.3005 11.502 13.3682 11.3242 13.4189C10.9518 13.5374 10.499 13.6221 9.96582 13.6729C9.43262 13.7236 8.75977 13.749 7.94727 13.749C8.60742 14.2314 9.14062 14.6546 9.54688 15.0186C9.95312 15.374 10.262 15.6956 10.4736 15.9834C10.626 16.195 10.7572 16.4193 10.8672 16.6562C10.9772 16.8848 11.0322 17.109 11.0322 17.3291C11.0322 17.4645 10.9984 17.6042 10.9307 17.748C10.863 17.8919 10.7699 18.0273 10.6514 18.1543C10.5329 18.2728 10.3932 18.3743 10.2324 18.459C10.0716 18.5352 9.90234 18.5732 9.72461 18.5732C9.42839 18.5732 9.15755 18.4759 8.91211 18.2812C8.67513 18.0781 8.46777 17.8496 8.29004 17.5957C8.06999 17.291 7.84993 16.889 7.62988 16.3896C7.40983 15.8903 7.18132 15.2555 6.94434 14.4854C6.69043 15.264 6.45345 15.8988 6.2334 16.3896C6.01335 16.8805 5.79329 17.2741 5.57324 17.5703C5.37858 17.8327 5.16276 18.0654 4.92578 18.2686C4.69727 18.4717 4.4349 18.5732 4.13867 18.5732C3.96094 18.5732 3.79167 18.5352 3.63086 18.459C3.47852 18.3743 3.3431 18.2728 3.22461 18.1543C3.10612 18.0358 3.01302 17.9046 2.94531 17.7607C2.8776 17.6084 2.84375 17.4645 2.84375 17.3291C2.84375 17.0837 2.89453 16.8382 2.99609 16.5928C3.10612 16.3389 3.27962 16.068 3.5166 15.7803C3.76204 15.4925 4.07943 15.1836 4.46875 14.8535C4.85807 14.5234 5.34049 14.1553 5.91602 13.749C5.08659 13.749 4.40527 13.7236 3.87207 13.6729C3.34733 13.6136 2.90723 13.5247 2.55176 13.4062C2.36556 13.347 2.18359 13.2793 2.00586 13.2031C1.83659 13.1185 1.68424 13.0212 1.54883 12.9111C1.42188 12.7926 1.31608 12.6615 1.23145 12.5176C1.15527 12.3652 1.11719 12.1917 1.11719 11.9971C1.11719 11.7432 1.15527 11.5316 1.23145 11.3623C1.31608 11.1846 1.42188 11.0449 1.54883 10.9434C1.67578 10.8418 1.81543 10.7699 1.96777 10.7275C2.12012 10.6768 2.26823 10.6514 2.41211 10.6514C2.64062 10.6514 2.8776 10.6852 3.12305 10.7529C3.37695 10.8122 3.65625 10.918 3.96094 11.0703C4.27409 11.2142 4.62109 11.4089 5.00195 11.6543C5.38281 11.8913 5.81868 12.1875 6.30957 12.543Z" fill="#19C1CC"/>
<path d="M27.1299 6.37305V21.8232C27.1299 21.9502 27.1257 22.1025 27.1172 22.2803C27.1172 22.458 27.113 22.6484 27.1045 22.8516C27.096 23.0547 27.0833 23.2663 27.0664 23.4863C27.0579 23.6979 27.0452 23.901 27.0283 24.0957L28.7168 24.0195V26H23.7783L23.6387 24.7939H23.6133C23.0378 25.3949 22.4411 25.8138 21.8232 26.0508C21.2139 26.2962 20.5876 26.4189 19.9443 26.4189C19.1657 26.4189 18.4548 26.2666 17.8115 25.9619C17.1683 25.6488 16.6139 25.2087 16.1484 24.6416C15.6914 24.0661 15.3359 23.3721 15.082 22.5596C14.8281 21.7471 14.7012 20.8372 14.7012 19.8301C14.7012 18.7806 14.8535 17.8158 15.1582 16.9355C15.4714 16.0469 15.9072 15.2809 16.4658 14.6377C17.0329 13.9945 17.71 13.4909 18.4971 13.127C19.2926 12.763 20.1729 12.5811 21.1377 12.5811C21.6201 12.5811 22.0433 12.6318 22.4072 12.7334C22.7796 12.8265 23.1266 12.9323 23.4482 13.0508V11.3242C23.4482 11.1973 23.4482 11.0449 23.4482 10.8672C23.4567 10.6895 23.4652 10.499 23.4736 10.2959C23.4821 10.0928 23.4906 9.88542 23.499 9.67383C23.516 9.45378 23.5329 9.24642 23.5498 9.05176L21.7217 9.12793V7.14746C22.3226 7.14746 22.8516 7.12207 23.3086 7.07129C23.7741 7.02051 24.1676 6.95703 24.4893 6.88086C24.8193 6.80469 25.0817 6.72428 25.2764 6.63965C25.4795 6.54655 25.6276 6.45768 25.7207 6.37305H27.1299ZM21.3027 24.0449C21.7428 24.0449 22.1533 23.9307 22.5342 23.7021C22.915 23.4736 23.2197 23.1774 23.4482 22.8135V14.9932C23.262 14.8662 23.0039 14.7562 22.6738 14.6631C22.3438 14.5615 21.9883 14.5107 21.6074 14.5107C21.0065 14.5277 20.5072 14.68 20.1094 14.9678C19.7116 15.2471 19.3942 15.6195 19.1572 16.085C18.9202 16.542 18.751 17.0625 18.6494 17.6465C18.5563 18.2305 18.5098 18.8271 18.5098 19.4365C18.5098 19.9951 18.5605 20.5495 18.6621 21.0996C18.7637 21.6497 18.9245 22.1449 19.1445 22.585C19.373 23.0166 19.665 23.3678 20.0205 23.6387C20.376 23.9095 20.8034 24.0449 21.3027 24.0449ZM39.4316 12.5811C39.7363 12.5811 40.0241 12.6234 40.2949 12.708C40.5742 12.7926 40.8154 12.9238 41.0186 13.1016C41.2301 13.2708 41.3952 13.4909 41.5137 13.7617C41.6406 14.0326 41.7041 14.3584 41.7041 14.7393C41.7041 14.9424 41.6702 15.154 41.6025 15.374C41.5348 15.5856 41.429 15.7803 41.2852 15.958C41.1413 16.1357 40.9508 16.2839 40.7139 16.4023C40.4854 16.5124 40.2061 16.5674 39.876 16.5674C39.6982 16.5674 39.5163 16.5462 39.3301 16.5039C39.1439 16.4531 38.9704 16.3727 38.8096 16.2627C38.6572 16.1442 38.5218 15.9876 38.4033 15.793C38.2933 15.5983 38.2256 15.3486 38.2002 15.0439C37.9378 15.0439 37.6712 15.1328 37.4004 15.3105C37.138 15.4798 36.8883 15.6956 36.6514 15.958C36.4229 16.2119 36.2197 16.487 36.042 16.7832C35.8643 17.0794 35.7373 17.346 35.6611 17.583V21.8232C35.6611 21.9502 35.6569 22.1025 35.6484 22.2803C35.6484 22.458 35.6442 22.6484 35.6357 22.8516C35.6273 23.0547 35.6146 23.2663 35.5977 23.4863C35.5892 23.6979 35.5765 23.901 35.5596 24.0957L37.248 24.0195V26H30.4307V24.3115C30.7946 24.3115 31.0781 24.2565 31.2812 24.1465C31.4928 24.0365 31.6494 23.8799 31.751 23.6768C31.8525 23.4736 31.916 23.2324 31.9414 22.9531C31.9668 22.6654 31.9795 22.348 31.9795 22.001V17.6211C31.9795 17.3079 31.9837 16.9609 31.9922 16.5801C32.0091 16.1908 32.0387 15.8014 32.0811 15.4121L30.2529 15.4883V13.5205C30.8538 13.5205 31.3828 13.4951 31.8398 13.4443C32.3053 13.3936 32.6989 13.3301 33.0205 13.2539C33.3506 13.1777 33.613 13.0973 33.8076 13.0127C34.0107 12.9196 34.1589 12.8307 34.252 12.7461H35.5342L35.6484 14.9805H35.6865C35.8558 14.752 36.0589 14.498 36.2959 14.2188C36.5413 13.9395 36.8206 13.6813 37.1338 13.4443C37.4554 13.1989 37.8066 12.9958 38.1875 12.835C38.5684 12.6657 38.9831 12.5811 39.4316 12.5811ZM55.7197 21.8232C55.7113 22.3057 55.7028 22.6484 55.6943 22.8516C55.6859 23.0547 55.6732 23.2663 55.6562 23.4863C55.6478 23.6979 55.6351 23.901 55.6182 24.0957L57.3066 24.0195V26H52.3682L52.2285 24.6416H52.2031C51.9408 24.8701 51.6657 25.0944 51.3779 25.3145C51.0986 25.526 50.7982 25.7165 50.4766 25.8857C50.1634 26.0465 49.8249 26.1735 49.4609 26.2666C49.1055 26.3682 48.7204 26.4189 48.3057 26.4189C47.5355 26.4189 46.8753 26.3047 46.3252 26.0762C45.7835 25.8561 45.3392 25.5133 44.9922 25.0479C44.6452 24.5824 44.3913 23.9899 44.2305 23.2705C44.0697 22.5426 43.9893 21.6751 43.9893 20.668V17.6846C43.9893 17.3714 43.9935 17.0117 44.002 16.6055C44.0189 16.1992 44.0485 15.8014 44.0908 15.4121L42.2627 15.4883V13.5205C42.8636 13.5205 43.3926 13.4951 43.8496 13.4443C44.3151 13.3936 44.7087 13.3301 45.0303 13.2539C45.3604 13.1777 45.6227 13.0973 45.8174 13.0127C46.0205 12.9196 46.1686 12.8307 46.2617 12.7461H47.6836V20.7061C47.6836 21.8486 47.8275 22.6865 48.1152 23.2197C48.4115 23.7529 48.8896 24.0195 49.5498 24.0195C49.7614 24.0195 49.9814 23.9899 50.21 23.9307C50.4385 23.863 50.6628 23.7741 50.8828 23.6641C51.1029 23.5456 51.3102 23.4102 51.5049 23.2578C51.708 23.1055 51.8857 22.9447 52.0381 22.7754V17.6846C52.0381 17.3714 52.0423 17.0117 52.0508 16.6055C52.0677 16.1992 52.0973 15.8014 52.1396 15.4121L50.3115 15.4883V13.5205C50.9124 13.5205 51.4414 13.4951 51.8984 13.4443C52.3555 13.3936 52.7448 13.3301 53.0664 13.2539C53.3965 13.1777 53.6589 13.0973 53.8535 13.0127C54.0566 12.9196 54.2048 12.8307 54.2979 12.7461H55.7197V21.8232ZM65.3428 27.4473C65.1481 27.4388 64.9365 27.4303 64.708 27.4219C64.4795 27.4134 64.2467 27.4007 64.0098 27.3838C63.7812 27.3669 63.5527 27.3457 63.3242 27.3203C63.0957 27.3034 62.8883 27.278 62.7021 27.2441C62.4144 27.4642 62.2028 27.7435 62.0674 28.082C61.932 28.4206 61.8643 28.7422 61.8643 29.0469C61.8643 29.3854 61.9447 29.6901 62.1055 29.9609C62.2663 30.2318 62.499 30.4603 62.8037 30.6465C63.1084 30.8411 63.4723 30.9893 63.8955 31.0908C64.3271 31.1924 64.8096 31.2432 65.3428 31.2432C65.9521 31.2432 66.4896 31.1797 66.9551 31.0527C67.429 30.9258 67.8226 30.7607 68.1357 30.5576C68.4574 30.363 68.6986 30.1429 68.8594 29.8975C69.0202 29.652 69.1006 29.4066 69.1006 29.1611C69.1006 28.6279 68.7959 28.2217 68.1865 27.9424C67.5771 27.6715 66.6292 27.5065 65.3428 27.4473ZM64.9619 14.333C64.6149 14.333 64.306 14.4176 64.0352 14.5869C63.7728 14.7562 63.5443 14.9847 63.3496 15.2725C63.1634 15.5518 63.0195 15.8776 62.918 16.25C62.8249 16.6224 62.7783 17.0075 62.7783 17.4053C62.7783 17.8623 62.8249 18.3024 62.918 18.7256C63.0195 19.1488 63.1634 19.5254 63.3496 19.8555C63.5358 20.1771 63.7686 20.4352 64.0479 20.6299C64.3271 20.8245 64.6445 20.9219 65 20.9219C65.347 20.9219 65.6517 20.8372 65.9141 20.668C66.1849 20.4987 66.4092 20.2744 66.5869 19.9951C66.7731 19.7158 66.9128 19.4027 67.0059 19.0557C67.099 18.7002 67.1455 18.3447 67.1455 17.9893C67.1455 17.5322 67.099 17.0879 67.0059 16.6562C66.9212 16.2161 66.7858 15.8268 66.5996 15.4883C66.4219 15.1413 66.1934 14.862 65.9141 14.6504C65.6432 14.4388 65.3258 14.333 64.9619 14.333ZM71.5762 13.4951C71.4492 13.4951 71.3138 13.4697 71.1699 13.4189C71.0345 13.3597 70.9076 13.2878 70.7891 13.2031C70.6706 13.11 70.569 13.0042 70.4844 12.8857C70.3997 12.7588 70.3447 12.6276 70.3193 12.4922C70.2008 12.5176 70.0824 12.5938 69.9639 12.7207C69.8454 12.8477 69.7354 12.9958 69.6338 13.165C69.5407 13.3343 69.4561 13.512 69.3799 13.6982C69.3122 13.876 69.2656 14.0326 69.2402 14.168C69.748 14.5996 70.1331 15.1032 70.3955 15.6787C70.6579 16.2458 70.7891 16.8594 70.7891 17.5195C70.7891 18.2728 70.624 18.9668 70.2939 19.6016C69.9639 20.2279 69.5238 20.7695 68.9736 21.2266C68.432 21.6836 67.8057 22.0391 67.0947 22.293C66.3838 22.5469 65.6475 22.6738 64.8857 22.6738C64.6488 22.6738 64.3906 22.6611 64.1113 22.6357C63.8405 22.6019 63.5739 22.585 63.3115 22.585C62.9307 22.585 62.609 22.6569 62.3467 22.8008C62.0928 22.9362 61.9658 23.1266 61.9658 23.3721C61.9658 23.5329 62.0251 23.6683 62.1436 23.7783C62.262 23.8883 62.4525 23.9772 62.7148 24.0449C62.9772 24.1126 63.32 24.1719 63.7432 24.2227C64.1663 24.265 64.6826 24.3031 65.292 24.3369C66.2907 24.3962 67.1963 24.5062 68.0088 24.667C68.8298 24.8193 69.5322 25.0521 70.1162 25.3652C70.7002 25.6784 71.153 26.0846 71.4746 26.584C71.7962 27.0918 71.957 27.7223 71.957 28.4756C71.957 28.9665 71.8555 29.4193 71.6523 29.834C71.4492 30.2572 71.1699 30.638 70.8145 30.9766C70.4674 31.3151 70.0527 31.6113 69.5703 31.8652C69.0964 32.1276 68.5885 32.3434 68.0469 32.5127C67.5052 32.6904 66.9382 32.8216 66.3457 32.9062C65.7617 32.9993 65.182 33.0459 64.6064 33.0459C63.4808 33.0459 62.5371 32.9486 61.7754 32.7539C61.0221 32.5677 60.4128 32.3138 59.9473 31.9922C59.4902 31.679 59.1644 31.3193 58.9697 30.9131C58.7751 30.5068 58.6777 30.0837 58.6777 29.6436C58.6777 29.3727 58.7158 29.0977 58.792 28.8184C58.8766 28.5391 59.012 28.2682 59.1982 28.0059C59.3929 27.752 59.6468 27.5065 59.96 27.2695C60.2731 27.041 60.6667 26.8379 61.1406 26.6602C60.7852 26.5586 60.4847 26.4274 60.2393 26.2666C59.9938 26.1058 59.7949 25.9281 59.6426 25.7334C59.4902 25.5303 59.3802 25.3145 59.3125 25.0859C59.2448 24.849 59.2109 24.6077 59.2109 24.3623C59.2109 24.1423 59.2533 23.901 59.3379 23.6387C59.4225 23.3763 59.5622 23.1139 59.7568 22.8516C59.96 22.5892 60.2223 22.348 60.5439 22.1279C60.8656 21.8994 61.2676 21.7132 61.75 21.5693V21.5439C61.3691 21.4001 61.0221 21.2096 60.709 20.9727C60.3958 20.7357 60.125 20.4564 59.8965 20.1348C59.6764 19.8132 59.5029 19.4535 59.376 19.0557C59.249 18.6579 59.1855 18.2262 59.1855 17.7607C59.1855 16.999 59.3464 16.3008 59.668 15.666C59.998 15.0312 60.4339 14.4854 60.9756 14.0283C61.5173 13.5713 62.1351 13.2158 62.8291 12.9619C63.5231 12.708 64.2383 12.5811 64.9746 12.5811C65.2031 12.5811 65.4528 12.598 65.7236 12.6318C65.9945 12.6572 66.2695 12.7038 66.5488 12.7715C66.8281 12.8307 67.099 12.9111 67.3613 13.0127C67.6237 13.1143 67.8649 13.2412 68.085 13.3936C68.2288 12.9958 68.4023 12.6107 68.6055 12.2383C68.8086 11.8574 69.0456 11.5189 69.3164 11.2227C69.5957 10.9264 69.9046 10.6895 70.2432 10.5117C70.5902 10.334 70.971 10.2451 71.3857 10.2451C71.9697 10.2451 72.4141 10.3975 72.7188 10.7021C73.0319 11.0068 73.1885 11.4131 73.1885 11.9209C73.1885 12.0817 73.1631 12.2552 73.1123 12.4414C73.0615 12.6191 72.9727 12.7884 72.8457 12.9492C72.7272 13.1016 72.5622 13.2327 72.3506 13.3428C72.1475 13.4443 71.8893 13.4951 71.5762 13.4951Z" fill="#333333"/>
<path d="M75.2705 21.709C75.3044 22.1068 75.4313 22.4792 75.6514 22.8262C75.8714 23.1732 76.1592 23.4736 76.5146 23.7275C76.8701 23.9814 77.2848 24.1803 77.7588 24.3242C78.2412 24.4681 78.7575 24.54 79.3076 24.54C79.5192 24.54 79.7308 24.5146 79.9424 24.4639C80.1624 24.4131 80.3571 24.3369 80.5264 24.2354C80.6956 24.1253 80.8311 23.9899 80.9326 23.8291C81.0426 23.6683 81.0977 23.4736 81.0977 23.2451C81.0977 22.9997 81.0299 22.7923 80.8945 22.623C80.7676 22.4453 80.5771 22.2845 80.3232 22.1406C80.0693 21.9883 79.752 21.8402 79.3711 21.6963C78.9987 21.5524 78.5671 21.3831 78.0762 21.1885C77.5345 20.9769 76.9886 20.7611 76.4385 20.541C75.8883 20.3125 75.389 20.0374 74.9404 19.7158C74.4919 19.3942 74.1237 19.0007 73.8359 18.5352C73.5566 18.0612 73.417 17.473 73.417 16.7705C73.417 16.2712 73.5101 15.7718 73.6963 15.2725C73.891 14.7731 74.1872 14.3245 74.585 13.9268C74.9827 13.529 75.4906 13.2074 76.1084 12.9619C76.7262 12.708 77.4626 12.5811 78.3174 12.5811C78.5544 12.5811 78.8083 12.598 79.0791 12.6318C79.3584 12.6657 79.6377 12.7207 79.917 12.7969C80.1963 12.8646 80.4671 12.9535 80.7295 13.0635C80.9919 13.1735 81.2288 13.3047 81.4404 13.457H81.4658L81.4277 12.7207H83.4082V17.3164H81.7324C81.6562 16.8678 81.5124 16.4658 81.3008 16.1104C81.0977 15.7464 80.8395 15.4417 80.5264 15.1963C80.2132 14.9424 79.8535 14.7477 79.4473 14.6123C79.0495 14.4769 78.6178 14.4092 78.1523 14.4092C77.9323 14.4092 77.7165 14.4346 77.5049 14.4854C77.3018 14.5361 77.1198 14.6165 76.959 14.7266C76.7982 14.8366 76.6712 14.9805 76.5781 15.1582C76.485 15.3275 76.4385 15.5391 76.4385 15.793C76.4385 16.0977 76.5189 16.3516 76.6797 16.5547C76.8405 16.7493 77.0648 16.9186 77.3525 17.0625C77.6403 17.2064 77.9746 17.3418 78.3555 17.4688C78.7448 17.5872 79.1637 17.7227 79.6123 17.875C80.2725 18.1035 80.8818 18.3532 81.4404 18.624C81.999 18.8949 82.4814 19.2122 82.8877 19.5762C83.2939 19.9316 83.6113 20.3421 83.8398 20.8076C84.0768 21.2646 84.1953 21.7979 84.1953 22.4072C84.1953 23.0843 84.0599 23.6768 83.7891 24.1846C83.5267 24.6839 83.1755 25.0986 82.7354 25.4287C82.2952 25.7588 81.7917 26.0042 81.2246 26.165C80.6576 26.3343 80.0693 26.4189 79.46 26.4189C79.0876 26.4189 78.7152 26.3936 78.3428 26.3428C77.9704 26.292 77.6149 26.2201 77.2764 26.127C76.9378 26.0423 76.6247 25.9365 76.3369 25.8096C76.0576 25.6826 75.8164 25.543 75.6133 25.3906H75.5879L75.6768 26.1777H73.6963L73.5947 21.709H75.2705ZM85.4648 13C85.9134 12.9915 86.3324 12.8815 86.7217 12.6699C87.111 12.4499 87.458 12.179 87.7627 11.8574C88.0758 11.5358 88.3382 11.1846 88.5498 10.8037C88.7699 10.4229 88.9307 10.0674 89.0322 9.7373H90.9492L90.9365 13H94.25V15.0059L90.9365 15.0693C90.9281 16.2965 90.9196 17.3164 90.9111 18.1289C90.9111 18.9329 90.9069 19.5804 90.8984 20.0713C90.8984 20.5537 90.8984 20.9007 90.8984 21.1123C90.8984 21.3154 90.8984 21.4339 90.8984 21.4678C90.8984 21.7725 90.9154 22.0771 90.9492 22.3818C90.9915 22.6781 91.0677 22.9489 91.1777 23.1943C91.2962 23.4313 91.457 23.626 91.6602 23.7783C91.8717 23.9222 92.1426 23.9941 92.4727 23.9941C92.5827 23.9941 92.7181 23.9772 92.8789 23.9434C93.0482 23.9095 93.2344 23.8418 93.4375 23.7402C93.6491 23.6302 93.8734 23.4736 94.1104 23.2705C94.3473 23.0589 94.5885 22.7796 94.834 22.4326L96.0908 23.6006C95.6169 24.2946 95.1429 24.832 94.6689 25.2129C94.195 25.5938 93.7422 25.873 93.3105 26.0508C92.8789 26.2285 92.4854 26.3343 92.1299 26.3682C91.7744 26.402 91.4782 26.4189 91.2412 26.4189C90.9535 26.4189 90.653 26.3936 90.3398 26.3428C90.0352 26.3005 89.7305 26.2158 89.4258 26.0889C89.1296 25.9619 88.846 25.7842 88.5752 25.5557C88.3128 25.3187 88.0758 25.014 87.8643 24.6416C87.6611 24.2692 87.5003 23.8206 87.3818 23.2959C87.2633 22.7627 87.2041 22.1364 87.2041 21.417L87.2422 15.1455L85.4648 15.1709V13ZM103.073 14.4092C102.565 14.4261 102.142 14.5742 101.804 14.8535C101.465 15.1243 101.19 15.4798 100.979 15.9199C100.767 16.36 100.615 16.8594 100.521 17.418C100.437 17.9681 100.395 18.5267 100.395 19.0938C100.395 19.7624 100.445 20.4268 100.547 21.0869C100.657 21.7386 100.826 22.3226 101.055 22.8389C101.292 23.3551 101.592 23.7741 101.956 24.0957C102.328 24.4173 102.777 24.5781 103.302 24.5781C103.818 24.5697 104.237 24.4258 104.559 24.1465C104.889 23.8672 105.147 23.5075 105.333 23.0674C105.528 22.6188 105.659 22.1195 105.727 21.5693C105.803 21.0192 105.841 20.4648 105.841 19.9062C105.841 19.263 105.794 18.6156 105.701 17.9639C105.617 17.3037 105.464 16.7113 105.244 16.1865C105.033 15.6618 104.749 15.2344 104.394 14.9043C104.047 14.5742 103.606 14.4092 103.073 14.4092ZM103.124 12.5811C104.055 12.5811 104.918 12.7334 105.714 13.0381C106.518 13.3428 107.212 13.7829 107.796 14.3584C108.38 14.9339 108.837 15.6364 109.167 16.4658C109.506 17.2868 109.675 18.2178 109.675 19.2588C109.675 20.3506 109.514 21.3408 109.192 22.2295C108.879 23.1097 108.435 23.863 107.859 24.4893C107.292 25.1071 106.611 25.5853 105.815 25.9238C105.02 26.2539 104.148 26.4189 103.2 26.4189C102.261 26.4189 101.385 26.2666 100.572 25.9619C99.7682 25.6488 99.07 25.2087 98.4775 24.6416C97.8851 24.0661 97.4196 23.3721 97.0811 22.5596C96.7425 21.7386 96.5732 20.8161 96.5732 19.792C96.5732 18.7171 96.7467 17.7354 97.0938 16.8467C97.4408 15.958 97.9105 15.2005 98.5029 14.5742C99.1038 13.9395 99.8021 13.4486 100.598 13.1016C101.393 12.7546 102.235 12.5811 103.124 12.5811ZM120.555 12.5811C120.859 12.5811 121.147 12.6234 121.418 12.708C121.697 12.7926 121.938 12.9238 122.142 13.1016C122.353 13.2708 122.518 13.4909 122.637 13.7617C122.764 14.0326 122.827 14.3584 122.827 14.7393C122.827 14.9424 122.793 15.154 122.726 15.374C122.658 15.5856 122.552 15.7803 122.408 15.958C122.264 16.1357 122.074 16.2839 121.837 16.4023C121.608 16.5124 121.329 16.5674 120.999 16.5674C120.821 16.5674 120.639 16.5462 120.453 16.5039C120.267 16.4531 120.093 16.3727 119.933 16.2627C119.78 16.1442 119.645 15.9876 119.526 15.793C119.416 15.5983 119.349 15.3486 119.323 15.0439C119.061 15.0439 118.794 15.1328 118.523 15.3105C118.261 15.4798 118.011 15.6956 117.774 15.958C117.546 16.2119 117.343 16.487 117.165 16.7832C116.987 17.0794 116.86 17.346 116.784 17.583V21.8232C116.784 21.9502 116.78 22.1025 116.771 22.2803C116.771 22.458 116.767 22.6484 116.759 22.8516C116.75 23.0547 116.738 23.2663 116.721 23.4863C116.712 23.6979 116.7 23.901 116.683 24.0957L118.371 24.0195V26H111.554V24.3115C111.918 24.3115 112.201 24.2565 112.404 24.1465C112.616 24.0365 112.772 23.8799 112.874 23.6768C112.976 23.4736 113.039 23.2324 113.064 22.9531C113.09 22.6654 113.103 22.348 113.103 22.001V17.6211C113.103 17.3079 113.107 16.9609 113.115 16.5801C113.132 16.1908 113.162 15.8014 113.204 15.4121L111.376 15.4883V13.5205C111.977 13.5205 112.506 13.4951 112.963 13.4443C113.428 13.3936 113.822 13.3301 114.144 13.2539C114.474 13.1777 114.736 13.0973 114.931 13.0127C115.134 12.9196 115.282 12.8307 115.375 12.7461H116.657L116.771 14.9805H116.81C116.979 14.752 117.182 14.498 117.419 14.2188C117.664 13.9395 117.944 13.6813 118.257 13.4443C118.578 13.1989 118.93 12.9958 119.311 12.835C119.691 12.6657 120.106 12.5811 120.555 12.5811ZM130.216 14.4092C129.835 14.4092 129.492 14.4811 129.188 14.625C128.891 14.7689 128.633 14.9678 128.413 15.2217C128.193 15.4756 128.011 15.7845 127.867 16.1484C127.732 16.5039 127.634 16.8975 127.575 17.3291H132.361C132.344 16.7959 132.281 16.3431 132.171 15.9707C132.061 15.5983 131.909 15.2979 131.714 15.0693C131.528 14.8324 131.308 14.6631 131.054 14.5615C130.8 14.46 130.521 14.4092 130.216 14.4092ZM135.954 19.0049L127.41 19.1572C127.41 19.8682 127.474 20.5283 127.601 21.1377C127.736 21.7386 127.948 22.2591 128.235 22.6992C128.523 23.1309 128.9 23.4736 129.365 23.7275C129.831 23.973 130.402 24.0957 131.079 24.0957C131.341 24.0957 131.633 24.0618 131.955 23.9941C132.277 23.9264 132.603 23.8164 132.933 23.6641C133.271 23.5117 133.61 23.3128 133.948 23.0674C134.287 22.8135 134.604 22.5046 134.9 22.1406L136.068 23.2451C135.603 23.9137 135.108 24.4554 134.583 24.8701C134.058 25.2848 133.529 25.6064 132.996 25.835C132.471 26.0635 131.951 26.2158 131.435 26.292C130.927 26.3766 130.453 26.4189 130.013 26.4189C129.056 26.4189 128.185 26.2581 127.397 25.9365C126.61 25.6149 125.933 25.1536 125.366 24.5527C124.799 23.9518 124.359 23.2282 124.046 22.3818C123.741 21.5355 123.589 20.5833 123.589 19.5254C123.589 18.6113 123.741 17.7396 124.046 16.9102C124.359 16.0723 124.799 15.3317 125.366 14.6885C125.933 14.0452 126.615 13.5332 127.41 13.1523C128.214 12.7715 129.107 12.5811 130.089 12.5811C130.571 12.5811 131.049 12.6234 131.523 12.708C132.006 12.7926 132.463 12.9365 132.895 13.1396C133.335 13.3343 133.741 13.5924 134.113 13.9141C134.494 14.2357 134.82 14.6335 135.091 15.1074C135.362 15.5814 135.573 16.14 135.726 16.7832C135.886 17.4264 135.963 18.167 135.954 19.0049Z" fill="#28B9C2"/>
</svg>
