<svg width="150" height="58" viewBox="0 0 150 58" fill="none" xmlns="http://www.w3.org/2000/svg">
<path d="M23.84 10V34H19.808L6.624 16.144V34H2.624V10H6.656L19.84 27.792V10H23.84ZM45.0608 18V34H41.1888V32.08C39.9088 33.5733 38.1381 34.32 35.8767 34.32C34.4474 34.32 33.1248 33.9467 31.9088 33.2C30.7141 32.4533 29.7541 31.4507 29.0288 30.192C28.3248 28.912 27.9728 27.5147 27.9728 26C27.9728 24.4853 28.3248 23.0987 29.0288 21.84C29.7541 20.56 30.7141 19.5467 31.9088 18.8C33.1248 18.0533 34.4474 17.68 35.8767 17.68C38.1381 17.68 39.9088 18.4267 41.1888 19.92V18H45.0608ZM36.5808 30.736C37.4341 30.736 38.2234 30.5333 38.9488 30.128C39.6741 29.7013 40.2501 29.1253 40.6768 28.4C41.1034 27.6747 41.3168 26.8747 41.3168 26C41.3168 25.1253 41.1034 24.3253 40.6768 23.6C40.2501 22.8747 39.6741 22.3093 38.9488 21.904C38.2234 21.4773 37.4341 21.264 36.5808 21.264C35.7274 21.264 34.9381 21.4773 34.2128 21.904C33.4874 22.3093 32.9114 22.8747 32.4848 23.6C32.0581 24.3253 31.8448 25.1253 31.8448 26C31.8448 26.8747 32.0581 27.6747 32.4848 28.4C32.9114 29.1253 33.4874 29.7013 34.2128 30.128C34.9381 30.5333 35.7274 30.736 36.5808 30.736ZM58.5995 21.2H55.4315V34H51.5275V21.2H48.3595V18H51.5275V12.24H55.4315V18H58.5995V21.2ZM68.2413 34.32C66.1293 34.32 64.4653 33.7653 63.2493 32.656C62.0546 31.5253 61.4573 29.9893 61.4573 28.048V18H65.3293V27.568C65.3293 28.5067 65.5959 29.2747 66.1293 29.872C66.6839 30.448 67.3879 30.736 68.2413 30.736C69.0946 30.736 69.7879 30.448 70.3213 29.872C70.8759 29.296 71.1533 28.528 71.1533 27.568V18H75.0253V28.048C75.0253 29.9893 74.4173 31.5253 73.2013 32.656C72.0066 33.7653 70.3533 34.32 68.2413 34.32ZM87.6835 17.744C88.2168 17.744 88.6862 17.8293 89.0915 18V21.616C88.6862 21.424 88.1955 21.328 87.6195 21.328C86.4675 21.328 85.5182 21.7547 84.7715 22.608C84.0462 23.44 83.6835 24.5387 83.6835 25.904V34H79.8115V18H83.6835V20.368C84.1315 19.536 84.6968 18.896 85.3795 18.448C86.0622 17.9787 86.8302 17.744 87.6835 17.744ZM107.592 18V34H103.72V32.08C102.44 33.5733 100.669 34.32 98.408 34.32C96.9787 34.32 95.656 33.9467 94.44 33.2C93.2453 32.4533 92.2853 31.4507 91.56 30.192C90.856 28.912 90.504 27.5147 90.504 26C90.504 24.4853 90.856 23.0987 91.56 21.84C92.2853 20.56 93.2453 19.5467 94.44 18.8C95.656 18.0533 96.9787 17.68 98.408 17.68C100.669 17.68 102.44 18.4267 103.72 19.92V18H107.592ZM99.112 30.736C99.9653 30.736 100.755 30.5333 101.48 30.128C102.205 29.7013 102.781 29.1253 103.208 28.4C103.635 27.6747 103.848 26.8747 103.848 26C103.848 25.1253 103.635 24.3253 103.208 23.6C102.781 22.8747 102.205 22.3093 101.48 21.904C100.755 21.4773 99.9653 21.264 99.112 21.264C98.2587 21.264 97.4693 21.4773 96.744 21.904C96.0187 22.3093 95.4427 22.8747 95.016 23.6C94.5893 24.3253 94.376 25.1253 94.376 26C94.376 26.8747 94.5893 27.6747 95.016 28.4C95.4427 29.1253 96.0187 29.7013 96.744 30.128C97.4693 30.5333 98.2587 30.736 99.112 30.736ZM112.843 8.4H116.715V34H112.843V8.4Z" fill="#46B974"/>
<path d="M126.102 32.8586L122.372 25.144C119.568 19.3456 121.21 12.5481 125.955 8.61339C128.909 6.16401 131.728 3.55547 134.314 0.720644L134.971 0L136.5 2.01984C138.386 4.51209 139.826 7.16222 140.676 9.84751L126.102 32.8586Z" fill="#2B807B"/>
<path d="M148.889 9.62258L148.392 7.13867C145.936 12.9279 139.637 16.004 136.026 19.9987C129.711 26.9844 126.102 32.8586 126.102 32.8586H129.841C146.458 32.8586 151.294 21.6431 148.889 9.62258V9.62258Z" fill="#46B974"/>
<path d="M148.392 7.13867L147.486 7.50121C145.255 8.39449 142.98 9.16821 140.676 9.84752V9.84758C139.302 10.2528 137.918 10.6244 136.526 10.9677C130.541 12.4441 126.102 17.8484 126.102 24.2893V32.8586C126.102 32.8586 141.641 23.052 148.392 7.13867V7.13867Z" fill="#ADE6B9"/>
<path d="M54.24 53.2C52.84 53.2 51.5467 52.86 50.36 52.18C49.1867 51.4867 48.2533 50.5533 47.56 49.38C46.88 48.1933 46.54 46.9 46.54 45.5C46.54 44.1 46.88 42.8133 47.56 41.64C48.2533 40.4533 49.1867 39.52 50.36 38.84C51.5467 38.1467 52.84 37.8 54.24 37.8C55.2133 37.8 56.1933 38.0067 57.18 38.42C58.1667 38.8333 59 39.38 59.68 40.06L58.46 41.26C57.9133 40.7133 57.2667 40.2867 56.52 39.98C55.7733 39.66 55.0133 39.5 54.24 39.5C53.1467 39.5 52.14 39.7667 51.22 40.3C50.3 40.8333 49.5733 41.56 49.04 42.48C48.5067 43.3867 48.24 44.3933 48.24 45.5C48.24 46.6067 48.5067 47.62 49.04 48.54C49.5733 49.4467 50.3 50.1667 51.22 50.7C52.14 51.2333 53.1467 51.5 54.24 51.5C55.0133 51.5 55.7733 51.3467 56.52 51.04C57.2667 50.72 57.9133 50.2867 58.46 49.74L59.68 50.94C59 51.62 58.1667 52.1667 57.18 52.58C56.1933 52.9933 55.2133 53.2 54.24 53.2ZM69.0577 53.2C67.6577 53.2 66.3643 52.86 65.1777 52.18C64.0043 51.4867 63.071 50.5533 62.3777 49.38C61.6977 48.1933 61.3577 46.9 61.3577 45.5C61.3577 44.1 61.6977 42.8133 62.3777 41.64C63.071 40.4533 64.0043 39.52 65.1777 38.84C66.3643 38.1467 67.6577 37.8 69.0577 37.8C70.4577 37.8 71.7443 38.1467 72.9177 38.84C74.1043 39.52 75.0377 40.4533 75.7177 41.64C76.411 42.8133 76.7577 44.1 76.7577 45.5C76.7577 46.9 76.411 48.1933 75.7177 49.38C75.0377 50.5533 74.1043 51.4867 72.9177 52.18C71.7443 52.86 70.4577 53.2 69.0577 53.2ZM69.0577 51.5C70.151 51.5 71.1577 51.2333 72.0777 50.7C72.9977 50.1667 73.7243 49.44 74.2577 48.52C74.791 47.6 75.0577 46.5933 75.0577 45.5C75.0577 44.4067 74.791 43.4 74.2577 42.48C73.7243 41.56 72.9977 40.8333 72.0777 40.3C71.1577 39.7667 70.151 39.5 69.0577 39.5C67.9643 39.5 66.9577 39.7667 66.0377 40.3C65.131 40.8333 64.4043 41.56 63.8577 42.48C63.3243 43.4 63.0577 44.4067 63.0577 45.5C63.0577 46.5933 63.3243 47.6 63.8577 48.52C64.4043 49.44 65.131 50.1667 66.0377 50.7C66.9577 51.2333 67.9643 51.5 69.0577 51.5ZM83.0219 53.2C81.9019 53.2 80.9019 52.9267 80.0219 52.38C79.1419 51.82 78.5019 51.0733 78.1019 50.14L79.6419 49.22C79.9085 49.9267 80.3352 50.4867 80.9219 50.9C81.5219 51.3 82.2219 51.5 83.0219 51.5C83.8619 51.5 84.5552 51.2867 85.1019 50.86C85.6619 50.42 85.9419 49.8267 85.9419 49.08C85.9419 48.5467 85.7952 48.0933 85.5019 47.72C85.2219 47.3467 84.8619 47.0467 84.4219 46.82C83.9952 46.58 83.4152 46.3133 82.6819 46.02C81.8152 45.66 81.1152 45.3267 80.5819 45.02C80.0619 44.7133 79.6152 44.3 79.2419 43.78C78.8819 43.2467 78.7019 42.58 78.7019 41.78C78.7019 40.98 78.8819 40.28 79.2419 39.68C79.6152 39.08 80.1219 38.62 80.7619 38.3C81.4019 37.9667 82.1152 37.8 82.9019 37.8C83.7285 37.8 84.4952 37.98 85.2019 38.34C85.9085 38.6867 86.4819 39.14 86.9219 39.7L85.6019 40.82C85.3085 40.3933 84.9285 40.0667 84.4619 39.84C84.0085 39.6133 83.5019 39.5 82.9419 39.5C82.2085 39.5 81.6019 39.6867 81.1219 40.06C80.6419 40.42 80.4019 40.9467 80.4019 41.64C80.4019 42.1333 80.5352 42.5533 80.8019 42.9C81.0819 43.2467 81.4219 43.5267 81.8219 43.74C82.2352 43.9533 82.8019 44.2133 83.5219 44.52C84.4019 44.88 85.1152 45.22 85.6619 45.54C86.2085 45.86 86.6752 46.3067 87.0619 46.88C87.4485 47.44 87.6419 48.1533 87.6419 49.02C87.6419 49.8733 87.4352 50.62 87.0219 51.26C86.6219 51.8867 86.0685 52.3667 85.3619 52.7C84.6685 53.0333 83.8885 53.2 83.0219 53.2ZM105.12 38V53H103.44V41L97.6003 51L91.8203 41.02V53H90.1203V38H91.9203L97.6203 47.74L103.34 38H105.12ZM110.534 39.64V44.68H116.234V46.32H110.534V51.36H117.074V53H108.834V38H117.074V39.64H110.534ZM128.109 39.7H123.989V53H122.289V39.7H118.169V38H128.109V39.7ZM130.221 38H131.921V53H130.221V38ZM143.068 53.2C141.668 53.2 140.375 52.86 139.188 52.18C138.015 51.4867 137.081 50.5533 136.388 49.38C135.708 48.1933 135.368 46.9 135.368 45.5C135.368 44.1 135.708 42.8133 136.388 41.64C137.081 40.4533 138.015 39.52 139.188 38.84C140.375 38.1467 141.668 37.8 143.068 37.8C144.041 37.8 145.021 38.0067 146.008 38.42C146.995 38.8333 147.828 39.38 148.508 40.06L147.288 41.26C146.741 40.7133 146.095 40.2867 145.348 39.98C144.601 39.66 143.841 39.5 143.068 39.5C141.975 39.5 140.968 39.7667 140.048 40.3C139.128 40.8333 138.401 41.56 137.868 42.48C137.335 43.3867 137.068 44.3933 137.068 45.5C137.068 46.6067 137.335 47.62 137.868 48.54C138.401 49.4467 139.128 50.1667 140.048 50.7C140.968 51.2333 141.975 51.5 143.068 51.5C143.841 51.5 144.601 51.3467 145.348 51.04C146.095 50.72 146.741 50.2867 147.288 49.74L148.508 50.94C147.828 51.62 146.995 52.1667 146.008 52.58C145.021 52.9933 144.041 53.2 143.068 53.2Z" fill="#165A56"/>
</svg>
